<svg width="483" height="83" viewBox="0 0 483 83" fill="none" xmlns="http://www.w3.org/2000/svg" shape-rendering="crispEdges">
<mask id="path-1-outside-1" maskUnits="userSpaceOnUse" x="0.914062" y="0.9375" width="482" height="83" fill="black">
<rect fill="white" x="0.914062" y="0.9375" width="482" height="83"/>
<path d="M64.7656 32.3281C64.6094 35.5156 64.2344 38.6875 63.6406 41.8438C63.0781 45 62.3906 48.1406 61.5781 51.2656C60.7344 54.2656 59.8281 57.2812 58.8594 60.3125C57.9219 63.3125 56.6406 66.1875 55.0156 68.9375C54.5781 69.5625 54.1094 70.1875 53.6094 70.8125C53.1406 71.4062 52.625 71.9531 52.0625 72.4531C51.5 72.9531 50.875 73.375 50.1875 73.7188C49.5312 74.0312 48.8281 74.2344 48.0781 74.3281C47.3281 74.3594 46.6406 74.2344 46.0156 73.9531C45.4219 73.6719 44.8906 73.2969 44.4219 72.8281C43.9531 72.3281 43.5469 71.7812 43.2031 71.1875C42.8906 70.5625 42.625 69.9531 42.4062 69.3594C41.0312 65.6719 39.7969 61.9219 38.7031 58.1094C37.6406 54.2969 36.7656 50.4219 36.0781 46.4844C34.9844 49.0469 33.8906 51.5938 32.7969 54.125C31.7031 56.625 30.5 59.1094 29.1875 61.5781C28.375 62.8906 27.6094 64.25 26.8906 65.6562C26.1719 67.0312 25.4219 68.3125 24.6406 69.5C23.8594 70.6875 22.9844 71.7188 22.0156 72.5938C21.0469 73.4375 19.8906 73.9844 18.5469 74.2344C17.3906 74.1094 16.375 73.7656 15.5 73.2031C14.625 72.6406 13.8594 71.9531 13.2031 71.1406C12.5469 70.3281 11.9844 69.4219 11.5156 68.4219C11.0781 67.4219 10.7031 66.4219 10.3906 65.4219C9.76562 63.3594 9.34375 61.25 9.125 59.0938C8.9375 56.9062 8.875 54.7031 8.9375 52.4844C8.9375 51.2969 9.01562 50.1562 9.17188 49.0625C9.32812 47.9375 9.46875 46.7812 9.59375 45.5938C9.78125 44.4062 9.98438 43.2188 10.2031 42.0312C10.4219 40.8438 10.5625 39.6562 10.625 38.4688C10.8438 36.6562 10.9219 34.8438 10.8594 33.0312C10.7969 31.2188 10.7969 29.4062 10.8594 27.5938C10.7969 25.875 10.8281 24.1562 10.9531 22.4375C11.1094 20.6875 11.3281 18.9375 11.6094 17.1875C11.8594 16.5625 12.0625 15.8906 12.2188 15.1719C12.375 14.4531 12.7188 13.8281 13.25 13.2969C13.6875 12.7656 14.1719 12.2344 14.7031 11.7031C15.2656 11.1406 15.9062 10.8594 16.625 10.8594C17.4688 10.7656 18.2656 10.8438 19.0156 11.0938C19.7969 11.3438 20.5 11.7188 21.125 12.2188C21.75 12.7188 22.2812 13.3125 22.7188 14C23.1562 14.6562 23.4531 15.375 23.6094 16.1562C23.7344 17.0625 23.75 18 23.6562 18.9688C23.5938 19.9062 23.5156 20.8594 23.4219 21.8281C23.0781 26.1094 22.7656 30.3594 22.4844 34.5781C22.2031 38.7656 21.9844 43 21.8281 47.2812C22.8594 44.375 24 41.5312 25.25 38.75C26.5 35.9688 27.7812 33.1875 29.0938 30.4062C29.7188 29.1875 30.3125 27.9688 30.875 26.75C31.4688 25.5 32.0781 24.2656 32.7031 23.0469C33.3594 21.8281 34.0469 20.6562 34.7656 19.5312C35.5156 18.375 36.3438 17.2812 37.25 16.25C37.6562 15.9688 38.0625 15.8125 38.4688 15.7812C38.875 15.7188 39.2969 15.6562 39.7344 15.5938C40.5156 15.5312 41.25 15.6562 41.9375 15.9688C42.625 16.25 43.2344 16.6562 43.7656 17.1875C44.1094 17.8438 44.4219 18.5 44.7031 19.1562C44.9844 19.8125 45.2031 20.5 45.3594 21.2188C45.9531 23.6562 46.5 26.0938 47 28.5312C47.5312 30.9688 48 33.4531 48.4062 35.9844C48.5625 37.5781 48.7344 39.1406 48.9219 40.6719C49.1406 42.1719 49.3281 43.7031 49.4844 45.2656C50.2031 40.7031 50.8281 36.1562 51.3594 31.625C51.8906 27.0625 52.2344 22.5 52.3906 17.9375C52.4531 17.3125 52.5 16.7188 52.5312 16.1562C52.5625 15.5938 52.625 15.0156 52.7188 14.4219C52.8438 13.7656 52.9688 13.125 53.0938 12.5C53.25 11.8438 53.5938 11.2812 54.125 10.8125C55.0625 10.4062 55.8281 10.1875 56.4219 10.1562C57.0469 10.0938 57.625 10.0938 58.1562 10.1562C58.7812 10.2812 59.4219 10.4531 60.0781 10.6719C60.7344 10.8594 61.2656 11.2188 61.6719 11.75C62.6406 13.1875 63.3438 14.75 63.7812 16.4375C64.2188 18.0938 64.5 19.8125 64.625 21.5938C64.7812 23.375 64.8281 25.1719 64.7656 26.9844C64.7344 28.7969 64.7344 30.5781 64.7656 32.3281Z"/>
<path d="M116.141 55.3438C115.297 56.9062 114.219 58.25 112.906 59.375C111.594 60.5 110.188 61.5312 108.688 62.4688C107.188 63.375 105.625 64.2344 104 65.0469C102.406 65.8594 100.875 66.7031 99.4062 67.5781C97.8125 68.3281 96.2031 69.0938 94.5781 69.875C92.9844 70.6562 91.3594 71.375 89.7031 72.0312C88.0781 72.6562 86.4219 73.1719 84.7344 73.5781C83.0469 73.9844 81.3281 74.2031 79.5781 74.2344C78.4844 74.1094 77.4375 73.8594 76.4375 73.4844C75.4375 73.0781 74.625 72.4219 74 71.5156C73.2812 70.6719 72.75 69.7188 72.4062 68.6562C72.0938 67.5625 71.7969 66.4844 71.5156 65.4219C70.9844 63.2656 70.6562 61.0781 70.5312 58.8594C70.4062 56.6406 70.3906 54.4062 70.4844 52.1562C70.7656 48.2188 71.2656 44.3281 71.9844 40.4844C72.7344 36.6094 73.5312 32.7188 74.375 28.8125C74.8125 26.875 75.2812 24.9531 75.7812 23.0469C76.2812 21.1406 76.7969 19.2188 77.3281 17.2812C78.0156 16.1562 78.8594 15.2344 79.8594 14.5156C80.8594 13.7656 81.9375 13.1562 83.0938 12.6875C84.2812 12.1875 85.5 11.7812 86.75 11.4688C88 11.125 89.1875 10.7969 90.3125 10.4844C93 9.92188 95.6719 9.54688 98.3281 9.35938C101.016 9.14062 103.703 9.14062 106.391 9.35938C107.203 9.42188 107.984 9.625 108.734 9.96875C109.484 10.3125 110.141 10.7656 110.703 11.3281C111.266 11.8906 111.703 12.5625 112.016 13.3438C112.359 14.0938 112.516 14.9062 112.484 15.7812C112.484 16.375 112.375 16.9375 112.156 17.4688C111.938 18 111.625 18.4844 111.219 18.9219C110.844 19.3281 110.391 19.6719 109.859 19.9531C109.359 20.2031 108.812 20.375 108.219 20.4688C106.906 20.5938 105.594 20.6719 104.281 20.7031C103 20.7031 101.703 20.6875 100.391 20.6562C99.1406 20.6562 97.8906 20.7344 96.6406 20.8906C95.4219 21.0469 94.2188 21.3438 93.0312 21.7812C91.8438 22.25 90.7344 22.875 89.7031 23.6562C88.6719 24.4375 88 25.4531 87.6875 26.7031C87.5312 27.2656 87.3906 27.8125 87.2656 28.3438C87.1719 28.875 87.0938 29.4219 87.0312 29.9844V30.5C88.7188 30.3438 90.3906 30.0938 92.0469 29.75C93.7344 29.375 95.4219 29 97.1094 28.625C98.7656 28.3125 100.422 28.0469 102.078 27.8281C103.734 27.5781 105.406 27.4688 107.094 27.5C107.969 27.4688 108.812 27.5938 109.625 27.875C110.438 28.1562 111.125 28.5781 111.688 29.1406C112.281 29.6719 112.719 30.3281 113 31.1094C113.312 31.8594 113.375 32.6875 113.188 33.5938C113.188 34.4062 113 35.1562 112.625 35.8438C112.281 36.5 111.812 37.0938 111.219 37.625C110.656 38.125 110.016 38.5469 109.297 38.8906C108.578 39.2344 107.844 39.4688 107.094 39.5938C105.438 39.8125 103.797 40.0156 102.172 40.2031C100.547 40.3594 98.9062 40.5 97.25 40.625C95.6875 40.8438 94.1094 41.0938 92.5156 41.375C90.9531 41.6562 89.4375 42.2344 87.9688 43.1094C87.2812 43.5781 86.6719 44.125 86.1406 44.75C85.6406 45.375 85.2188 46.0625 84.875 46.8125C84.5312 47.5312 84.2656 48.2812 84.0781 49.0625C83.8906 49.8438 83.7812 50.6094 83.75 51.3594C83.6875 52.8594 83.6719 54.3438 83.7031 55.8125C83.7656 57.25 83.9688 58.6719 84.3125 60.0781C86.4375 59.3906 88.4688 58.5469 90.4062 57.5469C92.375 56.5469 94.3438 55.5469 96.3125 54.5469C98.3125 53.5156 100.375 52.6094 102.5 51.8281C104.625 51.0156 106.781 50.5469 108.969 50.4219C109.719 50.3906 110.453 50.4531 111.172 50.6094C111.922 50.7344 112.609 50.9844 113.234 51.3594C113.859 51.7031 114.422 52.1406 114.922 52.6719C115.422 53.2031 115.797 53.8125 116.047 54.5L116.234 55.1094L116.141 55.3438Z"/>
<path d="M171.266 55.3438C170.422 56.9062 169.344 58.25 168.031 59.375C166.719 60.5 165.312 61.5312 163.812 62.4688C162.312 63.375 160.75 64.2344 159.125 65.0469C157.531 65.8594 156 66.7031 154.531 67.5781C152.938 68.3281 151.328 69.0938 149.703 69.875C148.109 70.6562 146.484 71.375 144.828 72.0312C143.203 72.6562 141.547 73.1719 139.859 73.5781C138.172 73.9844 136.453 74.2031 134.703 74.2344C133.609 74.1094 132.562 73.8594 131.562 73.4844C130.562 73.0781 129.75 72.4219 129.125 71.5156C128.406 70.6719 127.875 69.7188 127.531 68.6562C127.219 67.5625 126.922 66.4844 126.641 65.4219C126.109 63.2656 125.781 61.0781 125.656 58.8594C125.531 56.6406 125.516 54.4062 125.609 52.1562C125.891 48.2188 126.391 44.3281 127.109 40.4844C127.859 36.6094 128.656 32.7188 129.5 28.8125C129.938 26.875 130.406 24.9531 130.906 23.0469C131.406 21.1406 131.922 19.2188 132.453 17.2812C133.141 16.1562 133.984 15.2344 134.984 14.5156C135.984 13.7656 137.062 13.1562 138.219 12.6875C139.406 12.1875 140.625 11.7812 141.875 11.4688C143.125 11.125 144.312 10.7969 145.438 10.4844C148.125 9.92188 150.797 9.54688 153.453 9.35938C156.141 9.14062 158.828 9.14062 161.516 9.35938C162.328 9.42188 163.109 9.625 163.859 9.96875C164.609 10.3125 165.266 10.7656 165.828 11.3281C166.391 11.8906 166.828 12.5625 167.141 13.3438C167.484 14.0938 167.641 14.9062 167.609 15.7812C167.609 16.375 167.5 16.9375 167.281 17.4688C167.062 18 166.75 18.4844 166.344 18.9219C165.969 19.3281 165.516 19.6719 164.984 19.9531C164.484 20.2031 163.938 20.375 163.344 20.4688C162.031 20.5938 160.719 20.6719 159.406 20.7031C158.125 20.7031 156.828 20.6875 155.516 20.6562C154.266 20.6562 153.016 20.7344 151.766 20.8906C150.547 21.0469 149.344 21.3438 148.156 21.7812C146.969 22.25 145.859 22.875 144.828 23.6562C143.797 24.4375 143.125 25.4531 142.812 26.7031C142.656 27.2656 142.516 27.8125 142.391 28.3438C142.297 28.875 142.219 29.4219 142.156 29.9844V30.5C143.844 30.3438 145.516 30.0938 147.172 29.75C148.859 29.375 150.547 29 152.234 28.625C153.891 28.3125 155.547 28.0469 157.203 27.8281C158.859 27.5781 160.531 27.4688 162.219 27.5C163.094 27.4688 163.938 27.5938 164.75 27.875C165.562 28.1562 166.25 28.5781 166.812 29.1406C167.406 29.6719 167.844 30.3281 168.125 31.1094C168.438 31.8594 168.5 32.6875 168.312 33.5938C168.312 34.4062 168.125 35.1562 167.75 35.8438C167.406 36.5 166.938 37.0938 166.344 37.625C165.781 38.125 165.141 38.5469 164.422 38.8906C163.703 39.2344 162.969 39.4688 162.219 39.5938C160.562 39.8125 158.922 40.0156 157.297 40.2031C155.672 40.3594 154.031 40.5 152.375 40.625C150.812 40.8438 149.234 41.0938 147.641 41.375C146.078 41.6562 144.562 42.2344 143.094 43.1094C142.406 43.5781 141.797 44.125 141.266 44.75C140.766 45.375 140.344 46.0625 140 46.8125C139.656 47.5312 139.391 48.2812 139.203 49.0625C139.016 49.8438 138.906 50.6094 138.875 51.3594C138.812 52.8594 138.797 54.3438 138.828 55.8125C138.891 57.25 139.094 58.6719 139.438 60.0781C141.562 59.3906 143.594 58.5469 145.531 57.5469C147.5 56.5469 149.469 55.5469 151.438 54.5469C153.438 53.5156 155.5 52.6094 157.625 51.8281C159.75 51.0156 161.906 50.5469 164.094 50.4219C164.844 50.3906 165.578 50.4531 166.297 50.6094C167.047 50.7344 167.734 50.9844 168.359 51.3594C168.984 51.7031 169.547 52.1406 170.047 52.6719C170.547 53.2031 170.922 53.8125 171.172 54.5L171.359 55.1094L171.266 55.3438Z"/>
<path d="M227.422 53.0469C227.234 55.0781 226.672 57 225.734 58.8125C224.797 60.5938 223.641 62.2344 222.266 63.7344C220.891 65.2344 219.328 66.5781 217.578 67.7656C215.859 68.9531 214.109 69.9375 212.328 70.7188C208.641 72.4062 204.844 73.5156 200.938 74.0469C197.031 74.6094 193.141 74.6406 189.266 74.1406C187.734 73.9531 186.391 73.375 185.234 72.4062C184.078 71.4375 183.234 70.2656 182.703 68.8906C181.984 67.5781 181.516 66.1875 181.297 64.7188C181.078 63.2188 180.969 61.7188 180.969 60.2188C181 58.9375 181.156 57.6719 181.438 56.4219C181.719 55.1406 181.984 53.8594 182.234 52.5781C182.578 50.8281 182.891 49.125 183.172 47.4688C183.453 45.7812 183.672 44.0625 183.828 42.3125C184.172 38.1562 184.406 34.0469 184.531 29.9844C184.656 25.8906 184.719 21.7969 184.719 17.7031C186.031 15.9219 187.594 14.4219 189.406 13.2031C191.25 11.9531 193.203 11.0469 195.266 10.4844C197.328 9.85938 199.359 9.45312 201.359 9.26562C203.391 9.04688 205.438 8.9375 207.5 8.9375C209.688 9 211.859 9.21875 214.016 9.59375C216.203 9.96875 218.219 10.7188 220.062 11.8438C221 12.4062 221.812 13.0938 222.5 13.9062C223.219 14.7188 223.797 15.6094 224.234 16.5781C224.703 17.5469 225.031 18.5781 225.219 19.6719C225.438 20.7344 225.516 21.8281 225.453 22.9531C225.359 25.1094 224.812 27.1875 223.812 29.1875C222.812 31.1562 221.641 33.0312 220.297 34.8125C221.766 35.7812 223 36.9688 224 38.375C225 39.7812 225.766 41.3125 226.297 42.9688C226.922 44.5312 227.328 46.1719 227.516 47.8906C227.703 49.5781 227.672 51.2969 227.422 53.0469ZM211.672 24.5469C211.766 24.1719 211.781 23.7969 211.719 23.4219C211.656 23.0156 211.531 22.6562 211.344 22.3438C211.156 22.0312 210.906 21.7812 210.594 21.5938C210.281 21.4062 209.922 21.3281 209.516 21.3594H207.594C206.281 21.4219 204.984 21.5156 203.703 21.6406C202.453 21.7344 201.25 22.0938 200.094 22.7188C198.969 23.3438 198.094 24.2344 197.469 25.3906C196.844 26.5156 196.453 27.7031 196.297 28.9531C196.234 29.9219 196.188 30.9062 196.156 31.9062C196.156 32.875 196.125 33.8438 196.062 34.8125C197.469 34.3438 199 33.875 200.656 33.4062C202.312 32.9062 203.891 32.2969 205.391 31.5781C206.922 30.8281 208.25 29.9062 209.375 28.8125C210.531 27.6875 211.297 26.2656 211.672 24.5469ZM213.359 50.1406C213.516 49.3906 213.531 48.6406 213.406 47.8906C213.281 47.1406 213.031 46.4688 212.656 45.875C212.281 45.25 211.781 44.7656 211.156 44.4219C210.531 44.0469 209.797 43.9062 208.953 44C207.578 44.0625 206.219 44.3281 204.875 44.7969C203.562 45.2344 202.25 45.7656 200.938 46.3906C199.75 47.0469 198.594 47.7969 197.469 48.6406C196.344 49.4531 195.328 50.3906 194.422 51.4531C194.266 52.4531 194.125 53.4531 194 54.4531C193.906 55.4531 193.828 56.4531 193.766 57.4531C193.672 58.1406 193.641 58.8281 193.672 59.5156C193.734 60.1719 193.766 60.8438 193.766 61.5312C195.016 61.625 196.344 61.625 197.75 61.5312C199.156 61.4375 200.562 61.2344 201.969 60.9219C203.375 60.6094 204.734 60.1719 206.047 59.6094C207.359 59.0469 208.531 58.3281 209.562 57.4531C210.625 56.5781 211.484 55.5469 212.141 54.3594C212.828 53.1406 213.234 51.7344 213.359 50.1406Z"/>
<path d="M251.328 62.7031C251.266 63.9531 251.047 65.1719 250.672 66.3594C250.328 67.5469 249.891 68.7344 249.359 69.9219C249.141 70.4844 248.859 71.0625 248.516 71.6562C248.172 72.2188 247.766 72.7344 247.297 73.2031C246.859 73.6719 246.359 74.0625 245.797 74.375C245.234 74.6875 244.625 74.875 243.969 74.9375C243.469 74.9688 243.016 74.9062 242.609 74.75C242.203 74.5938 241.812 74.375 241.438 74.0938C241.094 73.8125 240.781 73.4844 240.5 73.1094C240.219 72.7344 239.969 72.3594 239.75 71.9844C239.406 71.1406 239.141 70.2656 238.953 69.3594C238.797 68.4531 238.656 67.5469 238.531 66.6406C238.344 64.8594 238.234 63.0781 238.203 61.2969C238.203 59.5156 238.266 57.7188 238.391 55.9062C238.578 52.875 238.797 49.875 239.047 46.9062C239.328 43.9375 239.609 40.9375 239.891 37.9062C240.234 34.875 240.562 31.8906 240.875 28.9531C241.219 26.0156 241.562 23.0312 241.906 20C242.125 18.9688 242.328 17.9375 242.516 16.9062C242.734 15.8438 243.094 14.8281 243.594 13.8594C243.781 13.3594 244 12.8594 244.25 12.3594C244.531 11.8281 244.844 11.3438 245.188 10.9062C245.531 10.4688 245.922 10.0938 246.359 9.78125C246.828 9.4375 247.344 9.1875 247.906 9.03125C249.219 8.84375 250.391 9.14062 251.422 9.92188C252.484 10.6719 253.266 11.6094 253.766 12.7344C254.172 13.8281 254.438 14.9844 254.562 16.2031C254.688 17.3906 254.688 18.5781 254.562 19.7656C254.438 21.4844 254.297 23.2031 254.141 24.9219C253.984 26.6406 253.781 28.3594 253.531 30.0781C253.312 31.8594 253.094 33.6406 252.875 35.4219C252.656 37.1719 252.469 38.9375 252.312 40.7188C252.156 42.6562 252.062 44.5625 252.031 46.4375C252.031 48.3125 251.984 50.1875 251.891 52.0625C251.828 53.8438 251.781 55.625 251.75 57.4062C251.719 59.1562 251.578 60.9219 251.328 62.7031Z"/>
<path d="M305.234 27.4531C305.141 29.0156 304.797 30.5156 304.203 31.9531C303.641 33.3906 302.906 34.7656 302 36.0781C301.125 37.3906 300.109 38.625 298.953 39.7812C297.828 40.9375 296.672 42 295.484 42.9688C292.828 45.1875 290 47.0938 287 48.6875C284.031 50.2812 280.938 51.625 277.719 52.7188C277.719 55.125 277.703 57.5312 277.672 59.9375C277.672 62.3438 277.547 64.7656 277.297 67.2031C277.328 67.9844 277.219 68.8281 276.969 69.7344C276.75 70.6406 276.391 71.4531 275.891 72.1719C275.422 72.8906 274.812 73.4531 274.062 73.8594C273.344 74.2656 272.5 74.3594 271.531 74.1406C270.375 74.0781 269.328 73.7188 268.391 73.0625C267.484 72.4062 266.719 71.625 266.094 70.7188C265.531 69.8125 265.125 68.8125 264.875 67.7188C264.625 66.625 264.531 65.5156 264.594 64.3906C264.656 60.8594 264.891 57.3438 265.297 53.8438C265.703 50.3438 266.219 46.8281 266.844 43.2969C266.969 42.7344 267.047 42.1875 267.078 41.6562C267.109 41.125 267.156 40.5781 267.219 40.0156C267.375 38.2031 267.484 36.3906 267.547 34.5781C267.609 32.7344 267.609 30.9219 267.547 29.1406C267.609 27.3906 267.672 25.6562 267.734 23.9375C267.828 22.1875 268 20.4531 268.25 18.7344C268.594 16.9844 269.312 15.5 270.406 14.2812C271.531 13.0625 272.828 12.0781 274.297 11.3281C275.797 10.5469 277.391 9.98438 279.078 9.64062C280.766 9.29688 282.359 9.09375 283.859 9.03125C286.609 8.90625 289.344 9.125 292.062 9.6875C294.812 10.2188 297.312 11.25 299.562 12.7812C300.625 13.625 301.531 14.6094 302.281 15.7344C303.031 16.8281 303.625 18.0156 304.062 19.2969C304.531 20.5781 304.859 21.9219 305.047 23.3281C305.234 24.7031 305.297 26.0781 305.234 27.4531ZM294.125 26.3281C294.188 25.7969 294.125 25.3281 293.938 24.9219C293.75 24.4844 293.484 24.1094 293.141 23.7969C292.828 23.4531 292.469 23.1562 292.062 22.9062C291.656 22.6562 291.25 22.4375 290.844 22.25C289.875 21.8438 288.906 21.5469 287.938 21.3594C286.969 21.1406 285.953 21.0312 284.891 21.0312C284.016 20.9688 283.125 21.1562 282.219 21.5938C281.312 22.0312 280.641 22.6719 280.203 23.5156C279.922 24.4219 279.703 25.3438 279.547 26.2812C279.422 27.2188 279.312 28.1406 279.219 29.0469C279.094 30.5781 278.969 32.125 278.844 33.6875C278.719 35.25 278.656 36.7969 278.656 38.3281C280.344 37.8906 281.953 37.25 283.484 36.4062C285.047 35.5312 286.531 34.5938 287.938 33.5938C288.562 33.125 289.203 32.6406 289.859 32.1406C290.547 31.6406 291.172 31.1094 291.734 30.5469C292.328 29.9531 292.844 29.3125 293.281 28.625C293.719 27.9375 294 27.1719 294.125 26.3281Z"/>
<path d="M355.344 50.6562C355 53.6875 354.203 56.625 352.953 59.4688C351.703 62.2812 350 64.8281 347.844 67.1094C346.812 68.3281 345.656 69.4219 344.375 70.3906C343.094 71.3594 341.75 72.1875 340.344 72.875C338.938 73.5625 337.484 74.0781 335.984 74.4219C334.484 74.7969 332.969 74.9688 331.438 74.9375C329.156 74.9375 326.953 74.625 324.828 74C322.703 73.3438 320.672 72.4688 318.734 71.375C317.828 70.8438 316.922 70.25 316.016 69.5938C315.109 68.9375 314.297 68.2188 313.578 67.4375C312.859 66.625 312.266 65.7344 311.797 64.7656C311.359 63.7969 311.141 62.7344 311.141 61.5781C311.078 61.0469 311.156 60.5156 311.375 59.9844C311.594 59.4219 311.891 58.9375 312.266 58.5312C312.641 58.125 313.078 57.8281 313.578 57.6406C314.109 57.4219 314.656 57.3594 315.219 57.4531C316.062 57.5156 316.859 57.6719 317.609 57.9219C318.359 58.1406 319.078 58.4844 319.766 58.9531C320.516 59.3281 321.234 59.7188 321.922 60.125C322.641 60.5 323.359 60.8906 324.078 61.2969C326.422 62.2344 328.875 62.7031 331.438 62.7031C332.906 62.7031 334.391 62.5625 335.891 62.2812C337.391 62 338.766 61.4062 340.016 60.5C340.766 59.8125 341.359 59.125 341.797 58.4375C342.266 57.7188 342.625 57 342.875 56.2812C343.125 55.5312 343.312 54.8125 343.438 54.125C343.562 53.4062 343.672 52.7031 343.766 52.0156C343.891 51.1094 343.938 50.2031 343.906 49.2969C343.875 48.3594 343.719 47.4688 343.438 46.625C343.188 46.5 342.953 46.4062 342.734 46.3438C342.516 46.2812 342.266 46.25 341.984 46.25C340.578 46.25 339.203 46.4375 337.859 46.8125C336.516 47.1875 335.156 47.5781 333.781 47.9844C332.438 48.3906 331.094 48.7812 329.75 49.1562C328.406 49.5 327.031 49.6406 325.625 49.5781C324.25 49.6406 322.938 49.4844 321.688 49.1094C320.469 48.7344 319.344 48.1875 318.312 47.4688C317.312 46.7188 316.422 45.8438 315.641 44.8438C314.891 43.8125 314.312 42.7031 313.906 41.5156C313.031 39.1719 312.531 36.7344 312.406 34.2031C312.281 31.6406 312.438 29.0938 312.875 26.5625C313.031 25.2188 313.391 23.9375 313.953 22.7188C314.516 21.4688 315.203 20.2969 316.016 19.2031C316.828 18.1094 317.75 17.0938 318.781 16.1562C319.844 15.1875 320.938 14.3281 322.062 13.5781C324.406 11.9844 326.891 10.8281 329.516 10.1094C332.141 9.39062 334.781 9.03125 337.438 9.03125C339.219 9.09375 340.953 9.3125 342.641 9.6875C344.328 10.0625 345.922 10.7031 347.422 11.6094C348.141 12.0469 348.828 12.5469 349.484 13.1094C350.172 13.6406 350.766 14.25 351.266 14.9375C351.797 15.5938 352.203 16.3281 352.484 17.1406C352.797 17.9219 352.938 18.7656 352.906 19.6719C352.969 20.5469 352.797 21.2656 352.391 21.8281C351.984 22.3906 351.469 22.8281 350.844 23.1406C350.219 23.4531 349.516 23.6562 348.734 23.75C347.984 23.8438 347.281 23.8438 346.625 23.75C345.625 23.6875 344.656 23.5 343.719 23.1875C342.812 22.8438 341.891 22.5 340.953 22.1562C340.047 21.8125 339.125 21.5 338.188 21.2188C337.25 20.9375 336.281 20.7969 335.281 20.7969C333.969 20.7344 332.672 20.9375 331.391 21.4062C330.141 21.8438 328.953 22.4688 327.828 23.2812C326.797 24.0312 325.906 24.9844 325.156 26.1406C324.438 27.2656 324 28.4688 323.844 29.75C323.844 31.1562 324.141 32.5 324.734 33.7812C324.891 34.0625 325.047 34.3438 325.203 34.625C325.359 34.9062 325.531 35.1719 325.719 35.4219C325.938 35.6719 326.188 35.875 326.469 36.0312C326.75 36.1875 327.078 36.2812 327.453 36.3125C328.578 36.1562 329.672 35.875 330.734 35.4688C331.797 35.0625 332.828 34.6562 333.828 34.25C335.141 33.6875 336.453 33.2031 337.766 32.7969C339.109 32.3594 340.438 32.1406 341.75 32.1406C342.906 32.1406 344.016 32.2969 345.078 32.6094C346.141 32.9219 347.125 33.3594 348.031 33.9219C348.969 34.4844 349.828 35.1562 350.609 35.9375C351.391 36.6875 352.062 37.5156 352.625 38.4219C353.75 40.2031 354.547 42.1406 355.016 44.2344C355.484 46.2969 355.594 48.4375 355.344 50.6562Z"/>
<path d="M410.141 42.1719C409.859 45.7031 409.141 49.2031 407.984 52.6719C406.828 56.1406 405.312 59.4375 403.438 62.5625C402.5 64.0625 401.438 65.5625 400.25 67.0625C399.094 68.5312 397.797 69.8594 396.359 71.0469C394.953 72.2031 393.422 73.1562 391.766 73.9062C390.141 74.625 388.406 74.9688 386.562 74.9375C384.5 75.0312 382.531 74.7656 380.656 74.1406C378.781 73.5469 377.062 72.6875 375.5 71.5625C373.969 70.4062 372.625 69.0469 371.469 67.4844C370.312 65.8906 369.422 64.1719 368.797 62.3281C368.141 60.5156 367.641 58.6719 367.297 56.7969C366.953 54.8906 366.734 52.9844 366.641 51.0781C366.547 49.1406 366.531 47.1875 366.594 45.2188C366.688 43.25 366.828 41.2969 367.016 39.3594C367.266 37.2031 367.516 35.0312 367.766 32.8438C368.016 30.6562 368.312 28.4844 368.656 26.3281C369.031 24.1406 369.469 21.9844 369.969 19.8594C370.5 17.7031 371.172 15.5938 371.984 13.5312C372.609 12.4062 373.453 11.5156 374.516 10.8594C375.578 10.1719 376.734 9.8125 377.984 9.78125C378.641 9.65625 379.234 9.6875 379.766 9.875C380.328 10.0312 380.812 10.2969 381.219 10.6719C381.656 11.0469 382 11.5156 382.25 12.0781C382.531 12.6094 382.703 13.1719 382.766 13.7656C383.047 15.1719 383.188 16.5938 383.188 18.0312C383.219 19.4375 383.156 20.8594 383 22.2969C382.688 24.7344 382.344 27.1406 381.969 29.5156C381.625 31.8906 381.25 34.2969 380.844 36.7344C380.406 39.1719 380 41.6094 379.625 44.0469C379.281 46.4844 379.031 48.9531 378.875 51.4531C378.781 52.5781 378.734 53.7188 378.734 54.875C378.766 56 379.016 57.0469 379.484 58.0156C379.766 58.5469 380.109 58.9531 380.516 59.2344C380.953 59.5156 381.422 59.75 381.922 59.9375C382.453 60.0938 383 60.2031 383.562 60.2656C384.156 60.3281 384.719 60.375 385.25 60.4062C387.375 60.5 389.156 60.0156 390.594 58.9531C392.031 57.8594 393.203 56.5 394.109 54.875C395.016 53.2188 395.688 51.4375 396.125 49.5312C396.562 47.5938 396.828 45.7969 396.922 44.1406C397.203 40.9844 397.359 37.8281 397.391 34.6719C397.422 31.4844 397.266 28.3281 396.922 25.2031C396.797 23.8906 396.719 22.5938 396.688 21.3125C396.688 20.0312 396.688 18.7344 396.688 17.4219C396.688 16.6719 396.781 15.8594 396.969 14.9844C397.156 14.1094 397.469 13.3281 397.906 12.6406C398.344 11.9219 398.906 11.3594 399.594 10.9531C400.281 10.5469 401.109 10.4219 402.078 10.5781C402.953 10.6719 403.734 10.9219 404.422 11.3281C405.141 11.7344 405.766 12.25 406.297 12.875C406.859 13.4688 407.328 14.1406 407.703 14.8906C408.078 15.6406 408.391 16.3906 408.641 17.1406C409.734 21.1406 410.344 25.25 410.469 29.4688C410.594 33.6562 410.484 37.8906 410.141 42.1719Z"/>
<path d="M472.391 65.6094C472.234 66.4219 472 67.2031 471.688 67.9531C471.375 68.7031 471.062 69.4688 470.75 70.25C470.344 70.9375 469.859 71.625 469.297 72.3125C468.734 72.9688 468.047 73.375 467.234 73.5312C466.391 73.6875 465.578 73.6562 464.797 73.4375C464.047 73.1875 463.359 72.8281 462.734 72.3594C462.109 71.8906 461.578 71.3125 461.141 70.625C460.703 69.9375 460.406 69.2188 460.25 68.4688C460.125 67.5625 460.078 66.6406 460.109 65.7031C460.172 64.7344 460.25 63.7656 460.344 62.7969C460.469 60.8281 460.594 58.8594 460.719 56.8906C460.875 54.8906 460.984 52.9062 461.047 50.9375C461.266 46.875 461.219 42.7969 460.906 38.7031C459.75 41.2969 458.656 43.9844 457.625 46.7656C456.625 49.5469 455.531 52.2812 454.344 54.9688C453.188 57.6562 451.891 60.2656 450.453 62.7969C449.016 65.2969 447.297 67.5938 445.297 69.6875C444.484 69.6875 443.75 69.5156 443.094 69.1719C442.469 68.8281 441.906 68.3906 441.406 67.8594C440.938 67.2969 440.531 66.6719 440.188 65.9844C439.875 65.2969 439.609 64.6094 439.391 63.9219C438.766 62.1094 438.266 60.2812 437.891 58.4375C437.516 56.5625 437.156 54.6875 436.812 52.8125C436.469 50.875 436.141 48.9688 435.828 47.0938C435.547 45.2188 435.188 43.3281 434.75 41.4219C434.406 43.3906 434.141 45.3594 433.953 47.3281C433.797 49.2656 433.656 51.2188 433.531 53.1875C433.406 54.2812 433.375 55.375 433.438 56.4688C433.5 57.5312 433.562 58.6094 433.625 59.7031C433.656 60.7344 433.703 61.7656 433.766 62.7969C433.828 63.8281 433.828 64.8906 433.766 65.9844C433.703 66.9531 433.609 67.9219 433.484 68.8906C433.391 69.8594 433.141 70.7969 432.734 71.7031C432.484 72.1406 432.172 72.4844 431.797 72.7344C431.422 72.9844 431.016 73.1719 430.578 73.2969C430.172 73.4219 429.734 73.5 429.266 73.5312C428.828 73.5312 428.406 73.5 428 73.4375C426.562 73.2812 425.391 72.6875 424.484 71.6562C423.578 70.5938 422.922 69.4219 422.516 68.1406C421.797 65.6094 421.375 63 421.25 60.3125C421.156 57.625 421.172 54.9375 421.297 52.25C421.484 47.9688 421.875 43.7031 422.469 39.4531C423.094 35.2031 423.953 30.9531 425.047 26.7031C425.328 24.9844 425.734 23.3281 426.266 21.7344C426.797 20.1094 427.406 18.4688 428.094 16.8125C428.438 16.0625 428.828 15.2969 429.266 14.5156C429.703 13.7344 430.203 13.0156 430.766 12.3594C431.359 11.7031 432.016 11.1406 432.734 10.6719C433.453 10.2031 434.25 9.90625 435.125 9.78125C435.969 9.65625 436.734 9.73438 437.422 10.0156C438.109 10.2656 438.703 10.6406 439.203 11.1406C439.734 11.6406 440.172 12.2344 440.516 12.9219C440.891 13.5781 441.172 14.25 441.359 14.9375C442.609 19.4688 443.734 24 444.734 28.5312C445.734 33.0625 446.5 37.6875 447.031 42.4062C448.375 39.2188 449.688 36.0625 450.969 32.9375C452.25 29.7812 453.562 26.6094 454.906 23.4219C455.562 22.2656 456.188 21 456.781 19.625C457.406 18.25 458.094 16.9375 458.844 15.6875C459.594 14.4062 460.453 13.2656 461.422 12.2656C462.422 11.2344 463.625 10.5 465.031 10.0625C466.156 10.2188 467.141 10.5781 467.984 11.1406C468.859 11.7031 469.609 12.4062 470.234 13.25C470.891 14.0938 471.438 15.0156 471.875 16.0156C472.312 17.0156 472.672 18 472.953 18.9688C473.641 21.0312 474.094 23.1562 474.312 25.3438C474.562 27.5 474.625 29.6875 474.5 31.9062C474.5 33 474.406 34.0938 474.219 35.1875C474.062 36.25 473.938 37.3281 473.844 38.4219C473.688 39.5156 473.547 40.5938 473.422 41.6562C473.297 42.7188 473.172 43.7969 473.047 44.8906C472.984 46.0781 473 47.2969 473.094 48.5469C473.188 49.7656 473.203 50.9688 473.141 52.1562C473.203 54.4062 473.203 56.6562 473.141 58.9062C473.078 61.125 472.828 63.3594 472.391 65.6094Z"/>
</mask>
<path d="M64.7656 32.3281C64.6094 35.5156 64.2344 38.6875 63.6406 41.8438C63.0781 45 62.3906 48.1406 61.5781 51.2656C60.7344 54.2656 59.8281 57.2812 58.8594 60.3125C57.9219 63.3125 56.6406 66.1875 55.0156 68.9375C54.5781 69.5625 54.1094 70.1875 53.6094 70.8125C53.1406 71.4062 52.625 71.9531 52.0625 72.4531C51.5 72.9531 50.875 73.375 50.1875 73.7188C49.5312 74.0312 48.8281 74.2344 48.0781 74.3281C47.3281 74.3594 46.6406 74.2344 46.0156 73.9531C45.4219 73.6719 44.8906 73.2969 44.4219 72.8281C43.9531 72.3281 43.5469 71.7812 43.2031 71.1875C42.8906 70.5625 42.625 69.9531 42.4062 69.3594C41.0312 65.6719 39.7969 61.9219 38.7031 58.1094C37.6406 54.2969 36.7656 50.4219 36.0781 46.4844C34.9844 49.0469 33.8906 51.5938 32.7969 54.125C31.7031 56.625 30.5 59.1094 29.1875 61.5781C28.375 62.8906 27.6094 64.25 26.8906 65.6562C26.1719 67.0312 25.4219 68.3125 24.6406 69.5C23.8594 70.6875 22.9844 71.7188 22.0156 72.5938C21.0469 73.4375 19.8906 73.9844 18.5469 74.2344C17.3906 74.1094 16.375 73.7656 15.5 73.2031C14.625 72.6406 13.8594 71.9531 13.2031 71.1406C12.5469 70.3281 11.9844 69.4219 11.5156 68.4219C11.0781 67.4219 10.7031 66.4219 10.3906 65.4219C9.76562 63.3594 9.34375 61.25 9.125 59.0938C8.9375 56.9062 8.875 54.7031 8.9375 52.4844C8.9375 51.2969 9.01562 50.1562 9.17188 49.0625C9.32812 47.9375 9.46875 46.7812 9.59375 45.5938C9.78125 44.4062 9.98438 43.2188 10.2031 42.0312C10.4219 40.8438 10.5625 39.6562 10.625 38.4688C10.8438 36.6562 10.9219 34.8438 10.8594 33.0312C10.7969 31.2188 10.7969 29.4062 10.8594 27.5938C10.7969 25.875 10.8281 24.1562 10.9531 22.4375C11.1094 20.6875 11.3281 18.9375 11.6094 17.1875C11.8594 16.5625 12.0625 15.8906 12.2188 15.1719C12.375 14.4531 12.7188 13.8281 13.25 13.2969C13.6875 12.7656 14.1719 12.2344 14.7031 11.7031C15.2656 11.1406 15.9062 10.8594 16.625 10.8594C17.4688 10.7656 18.2656 10.8438 19.0156 11.0938C19.7969 11.3438 20.5 11.7188 21.125 12.2188C21.75 12.7188 22.2812 13.3125 22.7188 14C23.1562 14.6562 23.4531 15.375 23.6094 16.1562C23.7344 17.0625 23.75 18 23.6562 18.9688C23.5938 19.9062 23.5156 20.8594 23.4219 21.8281C23.0781 26.1094 22.7656 30.3594 22.4844 34.5781C22.2031 38.7656 21.9844 43 21.8281 47.2812C22.8594 44.375 24 41.5312 25.25 38.75C26.5 35.9688 27.7812 33.1875 29.0938 30.4062C29.7188 29.1875 30.3125 27.9688 30.875 26.75C31.4688 25.5 32.0781 24.2656 32.7031 23.0469C33.3594 21.8281 34.0469 20.6562 34.7656 19.5312C35.5156 18.375 36.3438 17.2812 37.25 16.25C37.6562 15.9688 38.0625 15.8125 38.4688 15.7812C38.875 15.7188 39.2969 15.6562 39.7344 15.5938C40.5156 15.5312 41.25 15.6562 41.9375 15.9688C42.625 16.25 43.2344 16.6562 43.7656 17.1875C44.1094 17.8438 44.4219 18.5 44.7031 19.1562C44.9844 19.8125 45.2031 20.5 45.3594 21.2188C45.9531 23.6562 46.5 26.0938 47 28.5312C47.5312 30.9688 48 33.4531 48.4062 35.9844C48.5625 37.5781 48.7344 39.1406 48.9219 40.6719C49.1406 42.1719 49.3281 43.7031 49.4844 45.2656C50.2031 40.7031 50.8281 36.1562 51.3594 31.625C51.8906 27.0625 52.2344 22.5 52.3906 17.9375C52.4531 17.3125 52.5 16.7188 52.5312 16.1562C52.5625 15.5938 52.625 15.0156 52.7188 14.4219C52.8438 13.7656 52.9688 13.125 53.0938 12.5C53.25 11.8438 53.5938 11.2812 54.125 10.8125C55.0625 10.4062 55.8281 10.1875 56.4219 10.1562C57.0469 10.0938 57.625 10.0938 58.1562 10.1562C58.7812 10.2812 59.4219 10.4531 60.0781 10.6719C60.7344 10.8594 61.2656 11.2188 61.6719 11.75C62.6406 13.1875 63.3438 14.75 63.7812 16.4375C64.2188 18.0938 64.5 19.8125 64.625 21.5938C64.7812 23.375 64.8281 25.1719 64.7656 26.9844C64.7344 28.7969 64.7344 30.5781 64.7656 32.3281Z" fill="white"/>
<path d="M116.141 55.3438C115.297 56.9062 114.219 58.25 112.906 59.375C111.594 60.5 110.188 61.5312 108.688 62.4688C107.188 63.375 105.625 64.2344 104 65.0469C102.406 65.8594 100.875 66.7031 99.4062 67.5781C97.8125 68.3281 96.2031 69.0938 94.5781 69.875C92.9844 70.6562 91.3594 71.375 89.7031 72.0312C88.0781 72.6562 86.4219 73.1719 84.7344 73.5781C83.0469 73.9844 81.3281 74.2031 79.5781 74.2344C78.4844 74.1094 77.4375 73.8594 76.4375 73.4844C75.4375 73.0781 74.625 72.4219 74 71.5156C73.2812 70.6719 72.75 69.7188 72.4062 68.6562C72.0938 67.5625 71.7969 66.4844 71.5156 65.4219C70.9844 63.2656 70.6562 61.0781 70.5312 58.8594C70.4062 56.6406 70.3906 54.4062 70.4844 52.1562C70.7656 48.2188 71.2656 44.3281 71.9844 40.4844C72.7344 36.6094 73.5312 32.7188 74.375 28.8125C74.8125 26.875 75.2812 24.9531 75.7812 23.0469C76.2812 21.1406 76.7969 19.2188 77.3281 17.2812C78.0156 16.1562 78.8594 15.2344 79.8594 14.5156C80.8594 13.7656 81.9375 13.1562 83.0938 12.6875C84.2812 12.1875 85.5 11.7812 86.75 11.4688C88 11.125 89.1875 10.7969 90.3125 10.4844C93 9.92188 95.6719 9.54688 98.3281 9.35938C101.016 9.14062 103.703 9.14062 106.391 9.35938C107.203 9.42188 107.984 9.625 108.734 9.96875C109.484 10.3125 110.141 10.7656 110.703 11.3281C111.266 11.8906 111.703 12.5625 112.016 13.3438C112.359 14.0938 112.516 14.9062 112.484 15.7812C112.484 16.375 112.375 16.9375 112.156 17.4688C111.938 18 111.625 18.4844 111.219 18.9219C110.844 19.3281 110.391 19.6719 109.859 19.9531C109.359 20.2031 108.812 20.375 108.219 20.4688C106.906 20.5938 105.594 20.6719 104.281 20.7031C103 20.7031 101.703 20.6875 100.391 20.6562C99.1406 20.6562 97.8906 20.7344 96.6406 20.8906C95.4219 21.0469 94.2188 21.3438 93.0312 21.7812C91.8438 22.25 90.7344 22.875 89.7031 23.6562C88.6719 24.4375 88 25.4531 87.6875 26.7031C87.5312 27.2656 87.3906 27.8125 87.2656 28.3438C87.1719 28.875 87.0938 29.4219 87.0312 29.9844V30.5C88.7188 30.3438 90.3906 30.0938 92.0469 29.75C93.7344 29.375 95.4219 29 97.1094 28.625C98.7656 28.3125 100.422 28.0469 102.078 27.8281C103.734 27.5781 105.406 27.4688 107.094 27.5C107.969 27.4688 108.812 27.5938 109.625 27.875C110.438 28.1562 111.125 28.5781 111.688 29.1406C112.281 29.6719 112.719 30.3281 113 31.1094C113.312 31.8594 113.375 32.6875 113.188 33.5938C113.188 34.4062 113 35.1562 112.625 35.8438C112.281 36.5 111.812 37.0938 111.219 37.625C110.656 38.125 110.016 38.5469 109.297 38.8906C108.578 39.2344 107.844 39.4688 107.094 39.5938C105.438 39.8125 103.797 40.0156 102.172 40.2031C100.547 40.3594 98.9062 40.5 97.25 40.625C95.6875 40.8438 94.1094 41.0938 92.5156 41.375C90.9531 41.6562 89.4375 42.2344 87.9688 43.1094C87.2812 43.5781 86.6719 44.125 86.1406 44.75C85.6406 45.375 85.2188 46.0625 84.875 46.8125C84.5312 47.5312 84.2656 48.2812 84.0781 49.0625C83.8906 49.8438 83.7812 50.6094 83.75 51.3594C83.6875 52.8594 83.6719 54.3438 83.7031 55.8125C83.7656 57.25 83.9688 58.6719 84.3125 60.0781C86.4375 59.3906 88.4688 58.5469 90.4062 57.5469C92.375 56.5469 94.3438 55.5469 96.3125 54.5469C98.3125 53.5156 100.375 52.6094 102.5 51.8281C104.625 51.0156 106.781 50.5469 108.969 50.4219C109.719 50.3906 110.453 50.4531 111.172 50.6094C111.922 50.7344 112.609 50.9844 113.234 51.3594C113.859 51.7031 114.422 52.1406 114.922 52.6719C115.422 53.2031 115.797 53.8125 116.047 54.5L116.234 55.1094L116.141 55.3438Z" fill="white"/>
<path d="M171.266 55.3438C170.422 56.9062 169.344 58.25 168.031 59.375C166.719 60.5 165.312 61.5312 163.812 62.4688C162.312 63.375 160.75 64.2344 159.125 65.0469C157.531 65.8594 156 66.7031 154.531 67.5781C152.938 68.3281 151.328 69.0938 149.703 69.875C148.109 70.6562 146.484 71.375 144.828 72.0312C143.203 72.6562 141.547 73.1719 139.859 73.5781C138.172 73.9844 136.453 74.2031 134.703 74.2344C133.609 74.1094 132.562 73.8594 131.562 73.4844C130.562 73.0781 129.75 72.4219 129.125 71.5156C128.406 70.6719 127.875 69.7188 127.531 68.6562C127.219 67.5625 126.922 66.4844 126.641 65.4219C126.109 63.2656 125.781 61.0781 125.656 58.8594C125.531 56.6406 125.516 54.4062 125.609 52.1562C125.891 48.2188 126.391 44.3281 127.109 40.4844C127.859 36.6094 128.656 32.7188 129.5 28.8125C129.938 26.875 130.406 24.9531 130.906 23.0469C131.406 21.1406 131.922 19.2188 132.453 17.2812C133.141 16.1562 133.984 15.2344 134.984 14.5156C135.984 13.7656 137.062 13.1562 138.219 12.6875C139.406 12.1875 140.625 11.7812 141.875 11.4688C143.125 11.125 144.312 10.7969 145.438 10.4844C148.125 9.92188 150.797 9.54688 153.453 9.35938C156.141 9.14062 158.828 9.14062 161.516 9.35938C162.328 9.42188 163.109 9.625 163.859 9.96875C164.609 10.3125 165.266 10.7656 165.828 11.3281C166.391 11.8906 166.828 12.5625 167.141 13.3438C167.484 14.0938 167.641 14.9062 167.609 15.7812C167.609 16.375 167.5 16.9375 167.281 17.4688C167.062 18 166.75 18.4844 166.344 18.9219C165.969 19.3281 165.516 19.6719 164.984 19.9531C164.484 20.2031 163.938 20.375 163.344 20.4688C162.031 20.5938 160.719 20.6719 159.406 20.7031C158.125 20.7031 156.828 20.6875 155.516 20.6562C154.266 20.6562 153.016 20.7344 151.766 20.8906C150.547 21.0469 149.344 21.3438 148.156 21.7812C146.969 22.25 145.859 22.875 144.828 23.6562C143.797 24.4375 143.125 25.4531 142.812 26.7031C142.656 27.2656 142.516 27.8125 142.391 28.3438C142.297 28.875 142.219 29.4219 142.156 29.9844V30.5C143.844 30.3438 145.516 30.0938 147.172 29.75C148.859 29.375 150.547 29 152.234 28.625C153.891 28.3125 155.547 28.0469 157.203 27.8281C158.859 27.5781 160.531 27.4688 162.219 27.5C163.094 27.4688 163.938 27.5938 164.75 27.875C165.562 28.1562 166.25 28.5781 166.812 29.1406C167.406 29.6719 167.844 30.3281 168.125 31.1094C168.438 31.8594 168.5 32.6875 168.312 33.5938C168.312 34.4062 168.125 35.1562 167.75 35.8438C167.406 36.5 166.938 37.0938 166.344 37.625C165.781 38.125 165.141 38.5469 164.422 38.8906C163.703 39.2344 162.969 39.4688 162.219 39.5938C160.562 39.8125 158.922 40.0156 157.297 40.2031C155.672 40.3594 154.031 40.5 152.375 40.625C150.812 40.8438 149.234 41.0938 147.641 41.375C146.078 41.6562 144.562 42.2344 143.094 43.1094C142.406 43.5781 141.797 44.125 141.266 44.75C140.766 45.375 140.344 46.0625 140 46.8125C139.656 47.5312 139.391 48.2812 139.203 49.0625C139.016 49.8438 138.906 50.6094 138.875 51.3594C138.812 52.8594 138.797 54.3438 138.828 55.8125C138.891 57.25 139.094 58.6719 139.438 60.0781C141.562 59.3906 143.594 58.5469 145.531 57.5469C147.5 56.5469 149.469 55.5469 151.438 54.5469C153.438 53.5156 155.5 52.6094 157.625 51.8281C159.75 51.0156 161.906 50.5469 164.094 50.4219C164.844 50.3906 165.578 50.4531 166.297 50.6094C167.047 50.7344 167.734 50.9844 168.359 51.3594C168.984 51.7031 169.547 52.1406 170.047 52.6719C170.547 53.2031 170.922 53.8125 171.172 54.5L171.359 55.1094L171.266 55.3438Z" fill="white"/>
<path d="M227.422 53.0469C227.234 55.0781 226.672 57 225.734 58.8125C224.797 60.5938 223.641 62.2344 222.266 63.7344C220.891 65.2344 219.328 66.5781 217.578 67.7656C215.859 68.9531 214.109 69.9375 212.328 70.7188C208.641 72.4062 204.844 73.5156 200.938 74.0469C197.031 74.6094 193.141 74.6406 189.266 74.1406C187.734 73.9531 186.391 73.375 185.234 72.4062C184.078 71.4375 183.234 70.2656 182.703 68.8906C181.984 67.5781 181.516 66.1875 181.297 64.7188C181.078 63.2188 180.969 61.7188 180.969 60.2188C181 58.9375 181.156 57.6719 181.438 56.4219C181.719 55.1406 181.984 53.8594 182.234 52.5781C182.578 50.8281 182.891 49.125 183.172 47.4688C183.453 45.7812 183.672 44.0625 183.828 42.3125C184.172 38.1562 184.406 34.0469 184.531 29.9844C184.656 25.8906 184.719 21.7969 184.719 17.7031C186.031 15.9219 187.594 14.4219 189.406 13.2031C191.25 11.9531 193.203 11.0469 195.266 10.4844C197.328 9.85938 199.359 9.45312 201.359 9.26562C203.391 9.04688 205.438 8.9375 207.5 8.9375C209.688 9 211.859 9.21875 214.016 9.59375C216.203 9.96875 218.219 10.7188 220.062 11.8438C221 12.4062 221.812 13.0938 222.5 13.9062C223.219 14.7188 223.797 15.6094 224.234 16.5781C224.703 17.5469 225.031 18.5781 225.219 19.6719C225.438 20.7344 225.516 21.8281 225.453 22.9531C225.359 25.1094 224.812 27.1875 223.812 29.1875C222.812 31.1562 221.641 33.0312 220.297 34.8125C221.766 35.7812 223 36.9688 224 38.375C225 39.7812 225.766 41.3125 226.297 42.9688C226.922 44.5312 227.328 46.1719 227.516 47.8906C227.703 49.5781 227.672 51.2969 227.422 53.0469ZM211.672 24.5469C211.766 24.1719 211.781 23.7969 211.719 23.4219C211.656 23.0156 211.531 22.6562 211.344 22.3438C211.156 22.0312 210.906 21.7812 210.594 21.5938C210.281 21.4062 209.922 21.3281 209.516 21.3594H207.594C206.281 21.4219 204.984 21.5156 203.703 21.6406C202.453 21.7344 201.25 22.0938 200.094 22.7188C198.969 23.3438 198.094 24.2344 197.469 25.3906C196.844 26.5156 196.453 27.7031 196.297 28.9531C196.234 29.9219 196.188 30.9062 196.156 31.9062C196.156 32.875 196.125 33.8438 196.062 34.8125C197.469 34.3438 199 33.875 200.656 33.4062C202.312 32.9062 203.891 32.2969 205.391 31.5781C206.922 30.8281 208.25 29.9062 209.375 28.8125C210.531 27.6875 211.297 26.2656 211.672 24.5469ZM213.359 50.1406C213.516 49.3906 213.531 48.6406 213.406 47.8906C213.281 47.1406 213.031 46.4688 212.656 45.875C212.281 45.25 211.781 44.7656 211.156 44.4219C210.531 44.0469 209.797 43.9062 208.953 44C207.578 44.0625 206.219 44.3281 204.875 44.7969C203.562 45.2344 202.25 45.7656 200.938 46.3906C199.75 47.0469 198.594 47.7969 197.469 48.6406C196.344 49.4531 195.328 50.3906 194.422 51.4531C194.266 52.4531 194.125 53.4531 194 54.4531C193.906 55.4531 193.828 56.4531 193.766 57.4531C193.672 58.1406 193.641 58.8281 193.672 59.5156C193.734 60.1719 193.766 60.8438 193.766 61.5312C195.016 61.625 196.344 61.625 197.75 61.5312C199.156 61.4375 200.562 61.2344 201.969 60.9219C203.375 60.6094 204.734 60.1719 206.047 59.6094C207.359 59.0469 208.531 58.3281 209.562 57.4531C210.625 56.5781 211.484 55.5469 212.141 54.3594C212.828 53.1406 213.234 51.7344 213.359 50.1406Z" fill="white"/>
<path d="M251.328 62.7031C251.266 63.9531 251.047 65.1719 250.672 66.3594C250.328 67.5469 249.891 68.7344 249.359 69.9219C249.141 70.4844 248.859 71.0625 248.516 71.6562C248.172 72.2188 247.766 72.7344 247.297 73.2031C246.859 73.6719 246.359 74.0625 245.797 74.375C245.234 74.6875 244.625 74.875 243.969 74.9375C243.469 74.9688 243.016 74.9062 242.609 74.75C242.203 74.5938 241.812 74.375 241.438 74.0938C241.094 73.8125 240.781 73.4844 240.5 73.1094C240.219 72.7344 239.969 72.3594 239.75 71.9844C239.406 71.1406 239.141 70.2656 238.953 69.3594C238.797 68.4531 238.656 67.5469 238.531 66.6406C238.344 64.8594 238.234 63.0781 238.203 61.2969C238.203 59.5156 238.266 57.7188 238.391 55.9062C238.578 52.875 238.797 49.875 239.047 46.9062C239.328 43.9375 239.609 40.9375 239.891 37.9062C240.234 34.875 240.562 31.8906 240.875 28.9531C241.219 26.0156 241.562 23.0312 241.906 20C242.125 18.9688 242.328 17.9375 242.516 16.9062C242.734 15.8438 243.094 14.8281 243.594 13.8594C243.781 13.3594 244 12.8594 244.25 12.3594C244.531 11.8281 244.844 11.3438 245.188 10.9062C245.531 10.4688 245.922 10.0938 246.359 9.78125C246.828 9.4375 247.344 9.1875 247.906 9.03125C249.219 8.84375 250.391 9.14062 251.422 9.92188C252.484 10.6719 253.266 11.6094 253.766 12.7344C254.172 13.8281 254.438 14.9844 254.562 16.2031C254.688 17.3906 254.688 18.5781 254.562 19.7656C254.438 21.4844 254.297 23.2031 254.141 24.9219C253.984 26.6406 253.781 28.3594 253.531 30.0781C253.312 31.8594 253.094 33.6406 252.875 35.4219C252.656 37.1719 252.469 38.9375 252.312 40.7188C252.156 42.6562 252.062 44.5625 252.031 46.4375C252.031 48.3125 251.984 50.1875 251.891 52.0625C251.828 53.8438 251.781 55.625 251.75 57.4062C251.719 59.1562 251.578 60.9219 251.328 62.7031Z" fill="white"/>
<path d="M305.234 27.4531C305.141 29.0156 304.797 30.5156 304.203 31.9531C303.641 33.3906 302.906 34.7656 302 36.0781C301.125 37.3906 300.109 38.625 298.953 39.7812C297.828 40.9375 296.672 42 295.484 42.9688C292.828 45.1875 290 47.0938 287 48.6875C284.031 50.2812 280.938 51.625 277.719 52.7188C277.719 55.125 277.703 57.5312 277.672 59.9375C277.672 62.3438 277.547 64.7656 277.297 67.2031C277.328 67.9844 277.219 68.8281 276.969 69.7344C276.75 70.6406 276.391 71.4531 275.891 72.1719C275.422 72.8906 274.812 73.4531 274.062 73.8594C273.344 74.2656 272.5 74.3594 271.531 74.1406C270.375 74.0781 269.328 73.7188 268.391 73.0625C267.484 72.4062 266.719 71.625 266.094 70.7188C265.531 69.8125 265.125 68.8125 264.875 67.7188C264.625 66.625 264.531 65.5156 264.594 64.3906C264.656 60.8594 264.891 57.3438 265.297 53.8438C265.703 50.3438 266.219 46.8281 266.844 43.2969C266.969 42.7344 267.047 42.1875 267.078 41.6562C267.109 41.125 267.156 40.5781 267.219 40.0156C267.375 38.2031 267.484 36.3906 267.547 34.5781C267.609 32.7344 267.609 30.9219 267.547 29.1406C267.609 27.3906 267.672 25.6562 267.734 23.9375C267.828 22.1875 268 20.4531 268.25 18.7344C268.594 16.9844 269.312 15.5 270.406 14.2812C271.531 13.0625 272.828 12.0781 274.297 11.3281C275.797 10.5469 277.391 9.98438 279.078 9.64062C280.766 9.29688 282.359 9.09375 283.859 9.03125C286.609 8.90625 289.344 9.125 292.062 9.6875C294.812 10.2188 297.312 11.25 299.562 12.7812C300.625 13.625 301.531 14.6094 302.281 15.7344C303.031 16.8281 303.625 18.0156 304.062 19.2969C304.531 20.5781 304.859 21.9219 305.047 23.3281C305.234 24.7031 305.297 26.0781 305.234 27.4531ZM294.125 26.3281C294.188 25.7969 294.125 25.3281 293.938 24.9219C293.75 24.4844 293.484 24.1094 293.141 23.7969C292.828 23.4531 292.469 23.1562 292.062 22.9062C291.656 22.6562 291.25 22.4375 290.844 22.25C289.875 21.8438 288.906 21.5469 287.938 21.3594C286.969 21.1406 285.953 21.0312 284.891 21.0312C284.016 20.9688 283.125 21.1562 282.219 21.5938C281.312 22.0312 280.641 22.6719 280.203 23.5156C279.922 24.4219 279.703 25.3438 279.547 26.2812C279.422 27.2188 279.312 28.1406 279.219 29.0469C279.094 30.5781 278.969 32.125 278.844 33.6875C278.719 35.25 278.656 36.7969 278.656 38.3281C280.344 37.8906 281.953 37.25 283.484 36.4062C285.047 35.5312 286.531 34.5938 287.938 33.5938C288.562 33.125 289.203 32.6406 289.859 32.1406C290.547 31.6406 291.172 31.1094 291.734 30.5469C292.328 29.9531 292.844 29.3125 293.281 28.625C293.719 27.9375 294 27.1719 294.125 26.3281Z" fill="white"/>
<path d="M355.344 50.6562C355 53.6875 354.203 56.625 352.953 59.4688C351.703 62.2812 350 64.8281 347.844 67.1094C346.812 68.3281 345.656 69.4219 344.375 70.3906C343.094 71.3594 341.75 72.1875 340.344 72.875C338.938 73.5625 337.484 74.0781 335.984 74.4219C334.484 74.7969 332.969 74.9688 331.438 74.9375C329.156 74.9375 326.953 74.625 324.828 74C322.703 73.3438 320.672 72.4688 318.734 71.375C317.828 70.8438 316.922 70.25 316.016 69.5938C315.109 68.9375 314.297 68.2188 313.578 67.4375C312.859 66.625 312.266 65.7344 311.797 64.7656C311.359 63.7969 311.141 62.7344 311.141 61.5781C311.078 61.0469 311.156 60.5156 311.375 59.9844C311.594 59.4219 311.891 58.9375 312.266 58.5312C312.641 58.125 313.078 57.8281 313.578 57.6406C314.109 57.4219 314.656 57.3594 315.219 57.4531C316.062 57.5156 316.859 57.6719 317.609 57.9219C318.359 58.1406 319.078 58.4844 319.766 58.9531C320.516 59.3281 321.234 59.7188 321.922 60.125C322.641 60.5 323.359 60.8906 324.078 61.2969C326.422 62.2344 328.875 62.7031 331.438 62.7031C332.906 62.7031 334.391 62.5625 335.891 62.2812C337.391 62 338.766 61.4062 340.016 60.5C340.766 59.8125 341.359 59.125 341.797 58.4375C342.266 57.7188 342.625 57 342.875 56.2812C343.125 55.5312 343.312 54.8125 343.438 54.125C343.562 53.4062 343.672 52.7031 343.766 52.0156C343.891 51.1094 343.938 50.2031 343.906 49.2969C343.875 48.3594 343.719 47.4688 343.438 46.625C343.188 46.5 342.953 46.4062 342.734 46.3438C342.516 46.2812 342.266 46.25 341.984 46.25C340.578 46.25 339.203 46.4375 337.859 46.8125C336.516 47.1875 335.156 47.5781 333.781 47.9844C332.438 48.3906 331.094 48.7812 329.75 49.1562C328.406 49.5 327.031 49.6406 325.625 49.5781C324.25 49.6406 322.938 49.4844 321.688 49.1094C320.469 48.7344 319.344 48.1875 318.312 47.4688C317.312 46.7188 316.422 45.8438 315.641 44.8438C314.891 43.8125 314.312 42.7031 313.906 41.5156C313.031 39.1719 312.531 36.7344 312.406 34.2031C312.281 31.6406 312.438 29.0938 312.875 26.5625C313.031 25.2188 313.391 23.9375 313.953 22.7188C314.516 21.4688 315.203 20.2969 316.016 19.2031C316.828 18.1094 317.75 17.0938 318.781 16.1562C319.844 15.1875 320.938 14.3281 322.062 13.5781C324.406 11.9844 326.891 10.8281 329.516 10.1094C332.141 9.39062 334.781 9.03125 337.438 9.03125C339.219 9.09375 340.953 9.3125 342.641 9.6875C344.328 10.0625 345.922 10.7031 347.422 11.6094C348.141 12.0469 348.828 12.5469 349.484 13.1094C350.172 13.6406 350.766 14.25 351.266 14.9375C351.797 15.5938 352.203 16.3281 352.484 17.1406C352.797 17.9219 352.938 18.7656 352.906 19.6719C352.969 20.5469 352.797 21.2656 352.391 21.8281C351.984 22.3906 351.469 22.8281 350.844 23.1406C350.219 23.4531 349.516 23.6562 348.734 23.75C347.984 23.8438 347.281 23.8438 346.625 23.75C345.625 23.6875 344.656 23.5 343.719 23.1875C342.812 22.8438 341.891 22.5 340.953 22.1562C340.047 21.8125 339.125 21.5 338.188 21.2188C337.25 20.9375 336.281 20.7969 335.281 20.7969C333.969 20.7344 332.672 20.9375 331.391 21.4062C330.141 21.8438 328.953 22.4688 327.828 23.2812C326.797 24.0312 325.906 24.9844 325.156 26.1406C324.438 27.2656 324 28.4688 323.844 29.75C323.844 31.1562 324.141 32.5 324.734 33.7812C324.891 34.0625 325.047 34.3438 325.203 34.625C325.359 34.9062 325.531 35.1719 325.719 35.4219C325.938 35.6719 326.188 35.875 326.469 36.0312C326.75 36.1875 327.078 36.2812 327.453 36.3125C328.578 36.1562 329.672 35.875 330.734 35.4688C331.797 35.0625 332.828 34.6562 333.828 34.25C335.141 33.6875 336.453 33.2031 337.766 32.7969C339.109 32.3594 340.438 32.1406 341.75 32.1406C342.906 32.1406 344.016 32.2969 345.078 32.6094C346.141 32.9219 347.125 33.3594 348.031 33.9219C348.969 34.4844 349.828 35.1562 350.609 35.9375C351.391 36.6875 352.062 37.5156 352.625 38.4219C353.75 40.2031 354.547 42.1406 355.016 44.2344C355.484 46.2969 355.594 48.4375 355.344 50.6562Z" fill="white"/>
<path d="M410.141 42.1719C409.859 45.7031 409.141 49.2031 407.984 52.6719C406.828 56.1406 405.312 59.4375 403.438 62.5625C402.5 64.0625 401.438 65.5625 400.25 67.0625C399.094 68.5312 397.797 69.8594 396.359 71.0469C394.953 72.2031 393.422 73.1562 391.766 73.9062C390.141 74.625 388.406 74.9688 386.562 74.9375C384.5 75.0312 382.531 74.7656 380.656 74.1406C378.781 73.5469 377.062 72.6875 375.5 71.5625C373.969 70.4062 372.625 69.0469 371.469 67.4844C370.312 65.8906 369.422 64.1719 368.797 62.3281C368.141 60.5156 367.641 58.6719 367.297 56.7969C366.953 54.8906 366.734 52.9844 366.641 51.0781C366.547 49.1406 366.531 47.1875 366.594 45.2188C366.688 43.25 366.828 41.2969 367.016 39.3594C367.266 37.2031 367.516 35.0312 367.766 32.8438C368.016 30.6562 368.312 28.4844 368.656 26.3281C369.031 24.1406 369.469 21.9844 369.969 19.8594C370.5 17.7031 371.172 15.5938 371.984 13.5312C372.609 12.4062 373.453 11.5156 374.516 10.8594C375.578 10.1719 376.734 9.8125 377.984 9.78125C378.641 9.65625 379.234 9.6875 379.766 9.875C380.328 10.0312 380.812 10.2969 381.219 10.6719C381.656 11.0469 382 11.5156 382.25 12.0781C382.531 12.6094 382.703 13.1719 382.766 13.7656C383.047 15.1719 383.188 16.5938 383.188 18.0312C383.219 19.4375 383.156 20.8594 383 22.2969C382.688 24.7344 382.344 27.1406 381.969 29.5156C381.625 31.8906 381.25 34.2969 380.844 36.7344C380.406 39.1719 380 41.6094 379.625 44.0469C379.281 46.4844 379.031 48.9531 378.875 51.4531C378.781 52.5781 378.734 53.7188 378.734 54.875C378.766 56 379.016 57.0469 379.484 58.0156C379.766 58.5469 380.109 58.9531 380.516 59.2344C380.953 59.5156 381.422 59.75 381.922 59.9375C382.453 60.0938 383 60.2031 383.562 60.2656C384.156 60.3281 384.719 60.375 385.25 60.4062C387.375 60.5 389.156 60.0156 390.594 58.9531C392.031 57.8594 393.203 56.5 394.109 54.875C395.016 53.2188 395.688 51.4375 396.125 49.5312C396.562 47.5938 396.828 45.7969 396.922 44.1406C397.203 40.9844 397.359 37.8281 397.391 34.6719C397.422 31.4844 397.266 28.3281 396.922 25.2031C396.797 23.8906 396.719 22.5938 396.688 21.3125C396.688 20.0312 396.688 18.7344 396.688 17.4219C396.688 16.6719 396.781 15.8594 396.969 14.9844C397.156 14.1094 397.469 13.3281 397.906 12.6406C398.344 11.9219 398.906 11.3594 399.594 10.9531C400.281 10.5469 401.109 10.4219 402.078 10.5781C402.953 10.6719 403.734 10.9219 404.422 11.3281C405.141 11.7344 405.766 12.25 406.297 12.875C406.859 13.4688 407.328 14.1406 407.703 14.8906C408.078 15.6406 408.391 16.3906 408.641 17.1406C409.734 21.1406 410.344 25.25 410.469 29.4688C410.594 33.6562 410.484 37.8906 410.141 42.1719Z" fill="white"/>
<path d="M472.391 65.6094C472.234 66.4219 472 67.2031 471.688 67.9531C471.375 68.7031 471.062 69.4688 470.75 70.25C470.344 70.9375 469.859 71.625 469.297 72.3125C468.734 72.9688 468.047 73.375 467.234 73.5312C466.391 73.6875 465.578 73.6562 464.797 73.4375C464.047 73.1875 463.359 72.8281 462.734 72.3594C462.109 71.8906 461.578 71.3125 461.141 70.625C460.703 69.9375 460.406 69.2188 460.25 68.4688C460.125 67.5625 460.078 66.6406 460.109 65.7031C460.172 64.7344 460.25 63.7656 460.344 62.7969C460.469 60.8281 460.594 58.8594 460.719 56.8906C460.875 54.8906 460.984 52.9062 461.047 50.9375C461.266 46.875 461.219 42.7969 460.906 38.7031C459.75 41.2969 458.656 43.9844 457.625 46.7656C456.625 49.5469 455.531 52.2812 454.344 54.9688C453.188 57.6562 451.891 60.2656 450.453 62.7969C449.016 65.2969 447.297 67.5938 445.297 69.6875C444.484 69.6875 443.75 69.5156 443.094 69.1719C442.469 68.8281 441.906 68.3906 441.406 67.8594C440.938 67.2969 440.531 66.6719 440.188 65.9844C439.875 65.2969 439.609 64.6094 439.391 63.9219C438.766 62.1094 438.266 60.2812 437.891 58.4375C437.516 56.5625 437.156 54.6875 436.812 52.8125C436.469 50.875 436.141 48.9688 435.828 47.0938C435.547 45.2188 435.188 43.3281 434.75 41.4219C434.406 43.3906 434.141 45.3594 433.953 47.3281C433.797 49.2656 433.656 51.2188 433.531 53.1875C433.406 54.2812 433.375 55.375 433.438 56.4688C433.5 57.5312 433.562 58.6094 433.625 59.7031C433.656 60.7344 433.703 61.7656 433.766 62.7969C433.828 63.8281 433.828 64.8906 433.766 65.9844C433.703 66.9531 433.609 67.9219 433.484 68.8906C433.391 69.8594 433.141 70.7969 432.734 71.7031C432.484 72.1406 432.172 72.4844 431.797 72.7344C431.422 72.9844 431.016 73.1719 430.578 73.2969C430.172 73.4219 429.734 73.5 429.266 73.5312C428.828 73.5312 428.406 73.5 428 73.4375C426.562 73.2812 425.391 72.6875 424.484 71.6562C423.578 70.5938 422.922 69.4219 422.516 68.1406C421.797 65.6094 421.375 63 421.25 60.3125C421.156 57.625 421.172 54.9375 421.297 52.25C421.484 47.9688 421.875 43.7031 422.469 39.4531C423.094 35.2031 423.953 30.9531 425.047 26.7031C425.328 24.9844 425.734 23.3281 426.266 21.7344C426.797 20.1094 427.406 18.4688 428.094 16.8125C428.438 16.0625 428.828 15.2969 429.266 14.5156C429.703 13.7344 430.203 13.0156 430.766 12.3594C431.359 11.7031 432.016 11.1406 432.734 10.6719C433.453 10.2031 434.25 9.90625 435.125 9.78125C435.969 9.65625 436.734 9.73438 437.422 10.0156C438.109 10.2656 438.703 10.6406 439.203 11.1406C439.734 11.6406 440.172 12.2344 440.516 12.9219C440.891 13.5781 441.172 14.25 441.359 14.9375C442.609 19.4688 443.734 24 444.734 28.5312C445.734 33.0625 446.5 37.6875 447.031 42.4062C448.375 39.2188 449.688 36.0625 450.969 32.9375C452.25 29.7812 453.562 26.6094 454.906 23.4219C455.562 22.2656 456.188 21 456.781 19.625C457.406 18.25 458.094 16.9375 458.844 15.6875C459.594 14.4062 460.453 13.2656 461.422 12.2656C462.422 11.2344 463.625 10.5 465.031 10.0625C466.156 10.2188 467.141 10.5781 467.984 11.1406C468.859 11.7031 469.609 12.4062 470.234 13.25C470.891 14.0938 471.438 15.0156 471.875 16.0156C472.312 17.0156 472.672 18 472.953 18.9688C473.641 21.0312 474.094 23.1562 474.312 25.3438C474.562 27.5 474.625 29.6875 474.5 31.9062C474.5 33 474.406 34.0938 474.219 35.1875C474.062 36.25 473.938 37.3281 473.844 38.4219C473.688 39.5156 473.547 40.5938 473.422 41.6562C473.297 42.7188 473.172 43.7969 473.047 44.8906C472.984 46.0781 473 47.2969 473.094 48.5469C473.188 49.7656 473.203 50.9688 473.141 52.1562C473.203 54.4062 473.203 56.6562 473.141 58.9062C473.078 61.125 472.828 63.3594 472.391 65.6094Z" fill="white"/>
<path d="M64.7656 32.3281C64.6094 35.5156 64.2344 38.6875 63.6406 41.8438C63.0781 45 62.3906 48.1406 61.5781 51.2656C60.7344 54.2656 59.8281 57.2812 58.8594 60.3125C57.9219 63.3125 56.6406 66.1875 55.0156 68.9375C54.5781 69.5625 54.1094 70.1875 53.6094 70.8125C53.1406 71.4062 52.625 71.9531 52.0625 72.4531C51.5 72.9531 50.875 73.375 50.1875 73.7188C49.5312 74.0312 48.8281 74.2344 48.0781 74.3281C47.3281 74.3594 46.6406 74.2344 46.0156 73.9531C45.4219 73.6719 44.8906 73.2969 44.4219 72.8281C43.9531 72.3281 43.5469 71.7812 43.2031 71.1875C42.8906 70.5625 42.625 69.9531 42.4062 69.3594C41.0312 65.6719 39.7969 61.9219 38.7031 58.1094C37.6406 54.2969 36.7656 50.4219 36.0781 46.4844C34.9844 49.0469 33.8906 51.5938 32.7969 54.125C31.7031 56.625 30.5 59.1094 29.1875 61.5781C28.375 62.8906 27.6094 64.25 26.8906 65.6562C26.1719 67.0312 25.4219 68.3125 24.6406 69.5C23.8594 70.6875 22.9844 71.7188 22.0156 72.5938C21.0469 73.4375 19.8906 73.9844 18.5469 74.2344C17.3906 74.1094 16.375 73.7656 15.5 73.2031C14.625 72.6406 13.8594 71.9531 13.2031 71.1406C12.5469 70.3281 11.9844 69.4219 11.5156 68.4219C11.0781 67.4219 10.7031 66.4219 10.3906 65.4219C9.76562 63.3594 9.34375 61.25 9.125 59.0938C8.9375 56.9062 8.875 54.7031 8.9375 52.4844C8.9375 51.2969 9.01562 50.1562 9.17188 49.0625C9.32812 47.9375 9.46875 46.7812 9.59375 45.5938C9.78125 44.4062 9.98438 43.2188 10.2031 42.0312C10.4219 40.8438 10.5625 39.6562 10.625 38.4688C10.8438 36.6562 10.9219 34.8438 10.8594 33.0312C10.7969 31.2188 10.7969 29.4062 10.8594 27.5938C10.7969 25.875 10.8281 24.1562 10.9531 22.4375C11.1094 20.6875 11.3281 18.9375 11.6094 17.1875C11.8594 16.5625 12.0625 15.8906 12.2188 15.1719C12.375 14.4531 12.7188 13.8281 13.25 13.2969C13.6875 12.7656 14.1719 12.2344 14.7031 11.7031C15.2656 11.1406 15.9062 10.8594 16.625 10.8594C17.4688 10.7656 18.2656 10.8438 19.0156 11.0938C19.7969 11.3438 20.5 11.7188 21.125 12.2188C21.75 12.7188 22.2812 13.3125 22.7188 14C23.1562 14.6562 23.4531 15.375 23.6094 16.1562C23.7344 17.0625 23.75 18 23.6562 18.9688C23.5938 19.9062 23.5156 20.8594 23.4219 21.8281C23.0781 26.1094 22.7656 30.3594 22.4844 34.5781C22.2031 38.7656 21.9844 43 21.8281 47.2812C22.8594 44.375 24 41.5312 25.25 38.75C26.5 35.9688 27.7812 33.1875 29.0938 30.4062C29.7188 29.1875 30.3125 27.9688 30.875 26.75C31.4688 25.5 32.0781 24.2656 32.7031 23.0469C33.3594 21.8281 34.0469 20.6562 34.7656 19.5312C35.5156 18.375 36.3438 17.2812 37.25 16.25C37.6562 15.9688 38.0625 15.8125 38.4688 15.7812C38.875 15.7188 39.2969 15.6562 39.7344 15.5938C40.5156 15.5312 41.25 15.6562 41.9375 15.9688C42.625 16.25 43.2344 16.6562 43.7656 17.1875C44.1094 17.8438 44.4219 18.5 44.7031 19.1562C44.9844 19.8125 45.2031 20.5 45.3594 21.2188C45.9531 23.6562 46.5 26.0938 47 28.5312C47.5312 30.9688 48 33.4531 48.4062 35.9844C48.5625 37.5781 48.7344 39.1406 48.9219 40.6719C49.1406 42.1719 49.3281 43.7031 49.4844 45.2656C50.2031 40.7031 50.8281 36.1562 51.3594 31.625C51.8906 27.0625 52.2344 22.5 52.3906 17.9375C52.4531 17.3125 52.5 16.7188 52.5312 16.1562C52.5625 15.5938 52.625 15.0156 52.7188 14.4219C52.8438 13.7656 52.9688 13.125 53.0938 12.5C53.25 11.8438 53.5938 11.2812 54.125 10.8125C55.0625 10.4062 55.8281 10.1875 56.4219 10.1562C57.0469 10.0938 57.625 10.0938 58.1562 10.1562C58.7812 10.2812 59.4219 10.4531 60.0781 10.6719C60.7344 10.8594 61.2656 11.2188 61.6719 11.75C62.6406 13.1875 63.3438 14.75 63.7812 16.4375C64.2188 18.0938 64.5 19.8125 64.625 21.5938C64.7812 23.375 64.8281 25.1719 64.7656 26.9844C64.7344 28.7969 64.7344 30.5781 64.7656 32.3281Z" stroke="#453A94" stroke-width="16" mask="url(#path-1-outside-1)"/>
<path d="M116.141 55.3438C115.297 56.9062 114.219 58.25 112.906 59.375C111.594 60.5 110.188 61.5312 108.688 62.4688C107.188 63.375 105.625 64.2344 104 65.0469C102.406 65.8594 100.875 66.7031 99.4062 67.5781C97.8125 68.3281 96.2031 69.0938 94.5781 69.875C92.9844 70.6562 91.3594 71.375 89.7031 72.0312C88.0781 72.6562 86.4219 73.1719 84.7344 73.5781C83.0469 73.9844 81.3281 74.2031 79.5781 74.2344C78.4844 74.1094 77.4375 73.8594 76.4375 73.4844C75.4375 73.0781 74.625 72.4219 74 71.5156C73.2812 70.6719 72.75 69.7188 72.4062 68.6562C72.0938 67.5625 71.7969 66.4844 71.5156 65.4219C70.9844 63.2656 70.6562 61.0781 70.5312 58.8594C70.4062 56.6406 70.3906 54.4062 70.4844 52.1562C70.7656 48.2188 71.2656 44.3281 71.9844 40.4844C72.7344 36.6094 73.5312 32.7188 74.375 28.8125C74.8125 26.875 75.2812 24.9531 75.7812 23.0469C76.2812 21.1406 76.7969 19.2188 77.3281 17.2812C78.0156 16.1562 78.8594 15.2344 79.8594 14.5156C80.8594 13.7656 81.9375 13.1562 83.0938 12.6875C84.2812 12.1875 85.5 11.7812 86.75 11.4688C88 11.125 89.1875 10.7969 90.3125 10.4844C93 9.92188 95.6719 9.54688 98.3281 9.35938C101.016 9.14062 103.703 9.14062 106.391 9.35938C107.203 9.42188 107.984 9.625 108.734 9.96875C109.484 10.3125 110.141 10.7656 110.703 11.3281C111.266 11.8906 111.703 12.5625 112.016 13.3438C112.359 14.0938 112.516 14.9062 112.484 15.7812C112.484 16.375 112.375 16.9375 112.156 17.4688C111.938 18 111.625 18.4844 111.219 18.9219C110.844 19.3281 110.391 19.6719 109.859 19.9531C109.359 20.2031 108.812 20.375 108.219 20.4688C106.906 20.5938 105.594 20.6719 104.281 20.7031C103 20.7031 101.703 20.6875 100.391 20.6562C99.1406 20.6562 97.8906 20.7344 96.6406 20.8906C95.4219 21.0469 94.2188 21.3438 93.0312 21.7812C91.8438 22.25 90.7344 22.875 89.7031 23.6562C88.6719 24.4375 88 25.4531 87.6875 26.7031C87.5312 27.2656 87.3906 27.8125 87.2656 28.3438C87.1719 28.875 87.0938 29.4219 87.0312 29.9844V30.5C88.7188 30.3438 90.3906 30.0938 92.0469 29.75C93.7344 29.375 95.4219 29 97.1094 28.625C98.7656 28.3125 100.422 28.0469 102.078 27.8281C103.734 27.5781 105.406 27.4688 107.094 27.5C107.969 27.4688 108.812 27.5938 109.625 27.875C110.438 28.1562 111.125 28.5781 111.688 29.1406C112.281 29.6719 112.719 30.3281 113 31.1094C113.312 31.8594 113.375 32.6875 113.188 33.5938C113.188 34.4062 113 35.1562 112.625 35.8438C112.281 36.5 111.812 37.0938 111.219 37.625C110.656 38.125 110.016 38.5469 109.297 38.8906C108.578 39.2344 107.844 39.4688 107.094 39.5938C105.438 39.8125 103.797 40.0156 102.172 40.2031C100.547 40.3594 98.9062 40.5 97.25 40.625C95.6875 40.8438 94.1094 41.0938 92.5156 41.375C90.9531 41.6562 89.4375 42.2344 87.9688 43.1094C87.2812 43.5781 86.6719 44.125 86.1406 44.75C85.6406 45.375 85.2188 46.0625 84.875 46.8125C84.5312 47.5312 84.2656 48.2812 84.0781 49.0625C83.8906 49.8438 83.7812 50.6094 83.75 51.3594C83.6875 52.8594 83.6719 54.3438 83.7031 55.8125C83.7656 57.25 83.9688 58.6719 84.3125 60.0781C86.4375 59.3906 88.4688 58.5469 90.4062 57.5469C92.375 56.5469 94.3438 55.5469 96.3125 54.5469C98.3125 53.5156 100.375 52.6094 102.5 51.8281C104.625 51.0156 106.781 50.5469 108.969 50.4219C109.719 50.3906 110.453 50.4531 111.172 50.6094C111.922 50.7344 112.609 50.9844 113.234 51.3594C113.859 51.7031 114.422 52.1406 114.922 52.6719C115.422 53.2031 115.797 53.8125 116.047 54.5L116.234 55.1094L116.141 55.3438Z" stroke="#453A94" stroke-width="16" mask="url(#path-1-outside-1)"/>
<path d="M171.266 55.3438C170.422 56.9062 169.344 58.25 168.031 59.375C166.719 60.5 165.312 61.5312 163.812 62.4688C162.312 63.375 160.75 64.2344 159.125 65.0469C157.531 65.8594 156 66.7031 154.531 67.5781C152.938 68.3281 151.328 69.0938 149.703 69.875C148.109 70.6562 146.484 71.375 144.828 72.0312C143.203 72.6562 141.547 73.1719 139.859 73.5781C138.172 73.9844 136.453 74.2031 134.703 74.2344C133.609 74.1094 132.562 73.8594 131.562 73.4844C130.562 73.0781 129.75 72.4219 129.125 71.5156C128.406 70.6719 127.875 69.7188 127.531 68.6562C127.219 67.5625 126.922 66.4844 126.641 65.4219C126.109 63.2656 125.781 61.0781 125.656 58.8594C125.531 56.6406 125.516 54.4062 125.609 52.1562C125.891 48.2188 126.391 44.3281 127.109 40.4844C127.859 36.6094 128.656 32.7188 129.5 28.8125C129.938 26.875 130.406 24.9531 130.906 23.0469C131.406 21.1406 131.922 19.2188 132.453 17.2812C133.141 16.1562 133.984 15.2344 134.984 14.5156C135.984 13.7656 137.062 13.1562 138.219 12.6875C139.406 12.1875 140.625 11.7812 141.875 11.4688C143.125 11.125 144.312 10.7969 145.438 10.4844C148.125 9.92188 150.797 9.54688 153.453 9.35938C156.141 9.14062 158.828 9.14062 161.516 9.35938C162.328 9.42188 163.109 9.625 163.859 9.96875C164.609 10.3125 165.266 10.7656 165.828 11.3281C166.391 11.8906 166.828 12.5625 167.141 13.3438C167.484 14.0938 167.641 14.9062 167.609 15.7812C167.609 16.375 167.5 16.9375 167.281 17.4688C167.062 18 166.75 18.4844 166.344 18.9219C165.969 19.3281 165.516 19.6719 164.984 19.9531C164.484 20.2031 163.938 20.375 163.344 20.4688C162.031 20.5938 160.719 20.6719 159.406 20.7031C158.125 20.7031 156.828 20.6875 155.516 20.6562C154.266 20.6562 153.016 20.7344 151.766 20.8906C150.547 21.0469 149.344 21.3438 148.156 21.7812C146.969 22.25 145.859 22.875 144.828 23.6562C143.797 24.4375 143.125 25.4531 142.812 26.7031C142.656 27.2656 142.516 27.8125 142.391 28.3438C142.297 28.875 142.219 29.4219 142.156 29.9844V30.5C143.844 30.3438 145.516 30.0938 147.172 29.75C148.859 29.375 150.547 29 152.234 28.625C153.891 28.3125 155.547 28.0469 157.203 27.8281C158.859 27.5781 160.531 27.4688 162.219 27.5C163.094 27.4688 163.938 27.5938 164.75 27.875C165.562 28.1562 166.25 28.5781 166.812 29.1406C167.406 29.6719 167.844 30.3281 168.125 31.1094C168.438 31.8594 168.5 32.6875 168.312 33.5938C168.312 34.4062 168.125 35.1562 167.75 35.8438C167.406 36.5 166.938 37.0938 166.344 37.625C165.781 38.125 165.141 38.5469 164.422 38.8906C163.703 39.2344 162.969 39.4688 162.219 39.5938C160.562 39.8125 158.922 40.0156 157.297 40.2031C155.672 40.3594 154.031 40.5 152.375 40.625C150.812 40.8438 149.234 41.0938 147.641 41.375C146.078 41.6562 144.562 42.2344 143.094 43.1094C142.406 43.5781 141.797 44.125 141.266 44.75C140.766 45.375 140.344 46.0625 140 46.8125C139.656 47.5312 139.391 48.2812 139.203 49.0625C139.016 49.8438 138.906 50.6094 138.875 51.3594C138.812 52.8594 138.797 54.3438 138.828 55.8125C138.891 57.25 139.094 58.6719 139.438 60.0781C141.562 59.3906 143.594 58.5469 145.531 57.5469C147.5 56.5469 149.469 55.5469 151.438 54.5469C153.438 53.5156 155.5 52.6094 157.625 51.8281C159.75 51.0156 161.906 50.5469 164.094 50.4219C164.844 50.3906 165.578 50.4531 166.297 50.6094C167.047 50.7344 167.734 50.9844 168.359 51.3594C168.984 51.7031 169.547 52.1406 170.047 52.6719C170.547 53.2031 170.922 53.8125 171.172 54.5L171.359 55.1094L171.266 55.3438Z" stroke="#453A94" stroke-width="16" mask="url(#path-1-outside-1)"/>
<path d="M227.422 53.0469C227.234 55.0781 226.672 57 225.734 58.8125C224.797 60.5938 223.641 62.2344 222.266 63.7344C220.891 65.2344 219.328 66.5781 217.578 67.7656C215.859 68.9531 214.109 69.9375 212.328 70.7188C208.641 72.4062 204.844 73.5156 200.938 74.0469C197.031 74.6094 193.141 74.6406 189.266 74.1406C187.734 73.9531 186.391 73.375 185.234 72.4062C184.078 71.4375 183.234 70.2656 182.703 68.8906C181.984 67.5781 181.516 66.1875 181.297 64.7188C181.078 63.2188 180.969 61.7188 180.969 60.2188C181 58.9375 181.156 57.6719 181.438 56.4219C181.719 55.1406 181.984 53.8594 182.234 52.5781C182.578 50.8281 182.891 49.125 183.172 47.4688C183.453 45.7812 183.672 44.0625 183.828 42.3125C184.172 38.1562 184.406 34.0469 184.531 29.9844C184.656 25.8906 184.719 21.7969 184.719 17.7031C186.031 15.9219 187.594 14.4219 189.406 13.2031C191.25 11.9531 193.203 11.0469 195.266 10.4844C197.328 9.85938 199.359 9.45312 201.359 9.26562C203.391 9.04688 205.438 8.9375 207.5 8.9375C209.688 9 211.859 9.21875 214.016 9.59375C216.203 9.96875 218.219 10.7188 220.062 11.8438C221 12.4062 221.812 13.0938 222.5 13.9062C223.219 14.7188 223.797 15.6094 224.234 16.5781C224.703 17.5469 225.031 18.5781 225.219 19.6719C225.438 20.7344 225.516 21.8281 225.453 22.9531C225.359 25.1094 224.812 27.1875 223.812 29.1875C222.812 31.1562 221.641 33.0312 220.297 34.8125C221.766 35.7812 223 36.9688 224 38.375C225 39.7812 225.766 41.3125 226.297 42.9688C226.922 44.5312 227.328 46.1719 227.516 47.8906C227.703 49.5781 227.672 51.2969 227.422 53.0469ZM211.672 24.5469C211.766 24.1719 211.781 23.7969 211.719 23.4219C211.656 23.0156 211.531 22.6562 211.344 22.3438C211.156 22.0312 210.906 21.7812 210.594 21.5938C210.281 21.4062 209.922 21.3281 209.516 21.3594H207.594C206.281 21.4219 204.984 21.5156 203.703 21.6406C202.453 21.7344 201.25 22.0938 200.094 22.7188C198.969 23.3438 198.094 24.2344 197.469 25.3906C196.844 26.5156 196.453 27.7031 196.297 28.9531C196.234 29.9219 196.188 30.9062 196.156 31.9062C196.156 32.875 196.125 33.8438 196.062 34.8125C197.469 34.3438 199 33.875 200.656 33.4062C202.312 32.9062 203.891 32.2969 205.391 31.5781C206.922 30.8281 208.25 29.9062 209.375 28.8125C210.531 27.6875 211.297 26.2656 211.672 24.5469ZM213.359 50.1406C213.516 49.3906 213.531 48.6406 213.406 47.8906C213.281 47.1406 213.031 46.4688 212.656 45.875C212.281 45.25 211.781 44.7656 211.156 44.4219C210.531 44.0469 209.797 43.9062 208.953 44C207.578 44.0625 206.219 44.3281 204.875 44.7969C203.562 45.2344 202.25 45.7656 200.938 46.3906C199.75 47.0469 198.594 47.7969 197.469 48.6406C196.344 49.4531 195.328 50.3906 194.422 51.4531C194.266 52.4531 194.125 53.4531 194 54.4531C193.906 55.4531 193.828 56.4531 193.766 57.4531C193.672 58.1406 193.641 58.8281 193.672 59.5156C193.734 60.1719 193.766 60.8438 193.766 61.5312C195.016 61.625 196.344 61.625 197.75 61.5312C199.156 61.4375 200.562 61.2344 201.969 60.9219C203.375 60.6094 204.734 60.1719 206.047 59.6094C207.359 59.0469 208.531 58.3281 209.562 57.4531C210.625 56.5781 211.484 55.5469 212.141 54.3594C212.828 53.1406 213.234 51.7344 213.359 50.1406Z" stroke="#453A94" stroke-width="16" mask="url(#path-1-outside-1)"/>
<path d="M251.328 62.7031C251.266 63.9531 251.047 65.1719 250.672 66.3594C250.328 67.5469 249.891 68.7344 249.359 69.9219C249.141 70.4844 248.859 71.0625 248.516 71.6562C248.172 72.2188 247.766 72.7344 247.297 73.2031C246.859 73.6719 246.359 74.0625 245.797 74.375C245.234 74.6875 244.625 74.875 243.969 74.9375C243.469 74.9688 243.016 74.9062 242.609 74.75C242.203 74.5938 241.812 74.375 241.438 74.0938C241.094 73.8125 240.781 73.4844 240.5 73.1094C240.219 72.7344 239.969 72.3594 239.75 71.9844C239.406 71.1406 239.141 70.2656 238.953 69.3594C238.797 68.4531 238.656 67.5469 238.531 66.6406C238.344 64.8594 238.234 63.0781 238.203 61.2969C238.203 59.5156 238.266 57.7188 238.391 55.9062C238.578 52.875 238.797 49.875 239.047 46.9062C239.328 43.9375 239.609 40.9375 239.891 37.9062C240.234 34.875 240.562 31.8906 240.875 28.9531C241.219 26.0156 241.562 23.0312 241.906 20C242.125 18.9688 242.328 17.9375 242.516 16.9062C242.734 15.8438 243.094 14.8281 243.594 13.8594C243.781 13.3594 244 12.8594 244.25 12.3594C244.531 11.8281 244.844 11.3438 245.188 10.9062C245.531 10.4688 245.922 10.0938 246.359 9.78125C246.828 9.4375 247.344 9.1875 247.906 9.03125C249.219 8.84375 250.391 9.14062 251.422 9.92188C252.484 10.6719 253.266 11.6094 253.766 12.7344C254.172 13.8281 254.438 14.9844 254.562 16.2031C254.688 17.3906 254.688 18.5781 254.562 19.7656C254.438 21.4844 254.297 23.2031 254.141 24.9219C253.984 26.6406 253.781 28.3594 253.531 30.0781C253.312 31.8594 253.094 33.6406 252.875 35.4219C252.656 37.1719 252.469 38.9375 252.312 40.7188C252.156 42.6562 252.062 44.5625 252.031 46.4375C252.031 48.3125 251.984 50.1875 251.891 52.0625C251.828 53.8438 251.781 55.625 251.75 57.4062C251.719 59.1562 251.578 60.9219 251.328 62.7031Z" stroke="#453A94" stroke-width="16" mask="url(#path-1-outside-1)"/>
<path d="M305.234 27.4531C305.141 29.0156 304.797 30.5156 304.203 31.9531C303.641 33.3906 302.906 34.7656 302 36.0781C301.125 37.3906 300.109 38.625 298.953 39.7812C297.828 40.9375 296.672 42 295.484 42.9688C292.828 45.1875 290 47.0938 287 48.6875C284.031 50.2812 280.938 51.625 277.719 52.7188C277.719 55.125 277.703 57.5312 277.672 59.9375C277.672 62.3438 277.547 64.7656 277.297 67.2031C277.328 67.9844 277.219 68.8281 276.969 69.7344C276.75 70.6406 276.391 71.4531 275.891 72.1719C275.422 72.8906 274.812 73.4531 274.062 73.8594C273.344 74.2656 272.5 74.3594 271.531 74.1406C270.375 74.0781 269.328 73.7188 268.391 73.0625C267.484 72.4062 266.719 71.625 266.094 70.7188C265.531 69.8125 265.125 68.8125 264.875 67.7188C264.625 66.625 264.531 65.5156 264.594 64.3906C264.656 60.8594 264.891 57.3438 265.297 53.8438C265.703 50.3438 266.219 46.8281 266.844 43.2969C266.969 42.7344 267.047 42.1875 267.078 41.6562C267.109 41.125 267.156 40.5781 267.219 40.0156C267.375 38.2031 267.484 36.3906 267.547 34.5781C267.609 32.7344 267.609 30.9219 267.547 29.1406C267.609 27.3906 267.672 25.6562 267.734 23.9375C267.828 22.1875 268 20.4531 268.25 18.7344C268.594 16.9844 269.312 15.5 270.406 14.2812C271.531 13.0625 272.828 12.0781 274.297 11.3281C275.797 10.5469 277.391 9.98438 279.078 9.64062C280.766 9.29688 282.359 9.09375 283.859 9.03125C286.609 8.90625 289.344 9.125 292.062 9.6875C294.812 10.2188 297.312 11.25 299.562 12.7812C300.625 13.625 301.531 14.6094 302.281 15.7344C303.031 16.8281 303.625 18.0156 304.062 19.2969C304.531 20.5781 304.859 21.9219 305.047 23.3281C305.234 24.7031 305.297 26.0781 305.234 27.4531ZM294.125 26.3281C294.188 25.7969 294.125 25.3281 293.938 24.9219C293.75 24.4844 293.484 24.1094 293.141 23.7969C292.828 23.4531 292.469 23.1562 292.062 22.9062C291.656 22.6562 291.25 22.4375 290.844 22.25C289.875 21.8438 288.906 21.5469 287.938 21.3594C286.969 21.1406 285.953 21.0312 284.891 21.0312C284.016 20.9688 283.125 21.1562 282.219 21.5938C281.312 22.0312 280.641 22.6719 280.203 23.5156C279.922 24.4219 279.703 25.3438 279.547 26.2812C279.422 27.2188 279.312 28.1406 279.219 29.0469C279.094 30.5781 278.969 32.125 278.844 33.6875C278.719 35.25 278.656 36.7969 278.656 38.3281C280.344 37.8906 281.953 37.25 283.484 36.4062C285.047 35.5312 286.531 34.5938 287.938 33.5938C288.562 33.125 289.203 32.6406 289.859 32.1406C290.547 31.6406 291.172 31.1094 291.734 30.5469C292.328 29.9531 292.844 29.3125 293.281 28.625C293.719 27.9375 294 27.1719 294.125 26.3281Z" stroke="#453A94" stroke-width="16" mask="url(#path-1-outside-1)"/>
<path d="M355.344 50.6562C355 53.6875 354.203 56.625 352.953 59.4688C351.703 62.2812 350 64.8281 347.844 67.1094C346.812 68.3281 345.656 69.4219 344.375 70.3906C343.094 71.3594 341.75 72.1875 340.344 72.875C338.938 73.5625 337.484 74.0781 335.984 74.4219C334.484 74.7969 332.969 74.9688 331.438 74.9375C329.156 74.9375 326.953 74.625 324.828 74C322.703 73.3438 320.672 72.4688 318.734 71.375C317.828 70.8438 316.922 70.25 316.016 69.5938C315.109 68.9375 314.297 68.2188 313.578 67.4375C312.859 66.625 312.266 65.7344 311.797 64.7656C311.359 63.7969 311.141 62.7344 311.141 61.5781C311.078 61.0469 311.156 60.5156 311.375 59.9844C311.594 59.4219 311.891 58.9375 312.266 58.5312C312.641 58.125 313.078 57.8281 313.578 57.6406C314.109 57.4219 314.656 57.3594 315.219 57.4531C316.062 57.5156 316.859 57.6719 317.609 57.9219C318.359 58.1406 319.078 58.4844 319.766 58.9531C320.516 59.3281 321.234 59.7188 321.922 60.125C322.641 60.5 323.359 60.8906 324.078 61.2969C326.422 62.2344 328.875 62.7031 331.438 62.7031C332.906 62.7031 334.391 62.5625 335.891 62.2812C337.391 62 338.766 61.4062 340.016 60.5C340.766 59.8125 341.359 59.125 341.797 58.4375C342.266 57.7188 342.625 57 342.875 56.2812C343.125 55.5312 343.312 54.8125 343.438 54.125C343.562 53.4062 343.672 52.7031 343.766 52.0156C343.891 51.1094 343.938 50.2031 343.906 49.2969C343.875 48.3594 343.719 47.4688 343.438 46.625C343.188 46.5 342.953 46.4062 342.734 46.3438C342.516 46.2812 342.266 46.25 341.984 46.25C340.578 46.25 339.203 46.4375 337.859 46.8125C336.516 47.1875 335.156 47.5781 333.781 47.9844C332.438 48.3906 331.094 48.7812 329.75 49.1562C328.406 49.5 327.031 49.6406 325.625 49.5781C324.25 49.6406 322.938 49.4844 321.688 49.1094C320.469 48.7344 319.344 48.1875 318.312 47.4688C317.312 46.7188 316.422 45.8438 315.641 44.8438C314.891 43.8125 314.312 42.7031 313.906 41.5156C313.031 39.1719 312.531 36.7344 312.406 34.2031C312.281 31.6406 312.438 29.0938 312.875 26.5625C313.031 25.2188 313.391 23.9375 313.953 22.7188C314.516 21.4688 315.203 20.2969 316.016 19.2031C316.828 18.1094 317.75 17.0938 318.781 16.1562C319.844 15.1875 320.938 14.3281 322.062 13.5781C324.406 11.9844 326.891 10.8281 329.516 10.1094C332.141 9.39062 334.781 9.03125 337.438 9.03125C339.219 9.09375 340.953 9.3125 342.641 9.6875C344.328 10.0625 345.922 10.7031 347.422 11.6094C348.141 12.0469 348.828 12.5469 349.484 13.1094C350.172 13.6406 350.766 14.25 351.266 14.9375C351.797 15.5938 352.203 16.3281 352.484 17.1406C352.797 17.9219 352.938 18.7656 352.906 19.6719C352.969 20.5469 352.797 21.2656 352.391 21.8281C351.984 22.3906 351.469 22.8281 350.844 23.1406C350.219 23.4531 349.516 23.6562 348.734 23.75C347.984 23.8438 347.281 23.8438 346.625 23.75C345.625 23.6875 344.656 23.5 343.719 23.1875C342.812 22.8438 341.891 22.5 340.953 22.1562C340.047 21.8125 339.125 21.5 338.188 21.2188C337.25 20.9375 336.281 20.7969 335.281 20.7969C333.969 20.7344 332.672 20.9375 331.391 21.4062C330.141 21.8438 328.953 22.4688 327.828 23.2812C326.797 24.0312 325.906 24.9844 325.156 26.1406C324.438 27.2656 324 28.4688 323.844 29.75C323.844 31.1562 324.141 32.5 324.734 33.7812C324.891 34.0625 325.047 34.3438 325.203 34.625C325.359 34.9062 325.531 35.1719 325.719 35.4219C325.938 35.6719 326.188 35.875 326.469 36.0312C326.75 36.1875 327.078 36.2812 327.453 36.3125C328.578 36.1562 329.672 35.875 330.734 35.4688C331.797 35.0625 332.828 34.6562 333.828 34.25C335.141 33.6875 336.453 33.2031 337.766 32.7969C339.109 32.3594 340.438 32.1406 341.75 32.1406C342.906 32.1406 344.016 32.2969 345.078 32.6094C346.141 32.9219 347.125 33.3594 348.031 33.9219C348.969 34.4844 349.828 35.1562 350.609 35.9375C351.391 36.6875 352.062 37.5156 352.625 38.4219C353.75 40.2031 354.547 42.1406 355.016 44.2344C355.484 46.2969 355.594 48.4375 355.344 50.6562Z" stroke="#453A94" stroke-width="16" mask="url(#path-1-outside-1)"/>
<path d="M410.141 42.1719C409.859 45.7031 409.141 49.2031 407.984 52.6719C406.828 56.1406 405.312 59.4375 403.438 62.5625C402.5 64.0625 401.438 65.5625 400.25 67.0625C399.094 68.5312 397.797 69.8594 396.359 71.0469C394.953 72.2031 393.422 73.1562 391.766 73.9062C390.141 74.625 388.406 74.9688 386.562 74.9375C384.5 75.0312 382.531 74.7656 380.656 74.1406C378.781 73.5469 377.062 72.6875 375.5 71.5625C373.969 70.4062 372.625 69.0469 371.469 67.4844C370.312 65.8906 369.422 64.1719 368.797 62.3281C368.141 60.5156 367.641 58.6719 367.297 56.7969C366.953 54.8906 366.734 52.9844 366.641 51.0781C366.547 49.1406 366.531 47.1875 366.594 45.2188C366.688 43.25 366.828 41.2969 367.016 39.3594C367.266 37.2031 367.516 35.0312 367.766 32.8438C368.016 30.6562 368.312 28.4844 368.656 26.3281C369.031 24.1406 369.469 21.9844 369.969 19.8594C370.5 17.7031 371.172 15.5938 371.984 13.5312C372.609 12.4062 373.453 11.5156 374.516 10.8594C375.578 10.1719 376.734 9.8125 377.984 9.78125C378.641 9.65625 379.234 9.6875 379.766 9.875C380.328 10.0312 380.812 10.2969 381.219 10.6719C381.656 11.0469 382 11.5156 382.25 12.0781C382.531 12.6094 382.703 13.1719 382.766 13.7656C383.047 15.1719 383.188 16.5938 383.188 18.0312C383.219 19.4375 383.156 20.8594 383 22.2969C382.688 24.7344 382.344 27.1406 381.969 29.5156C381.625 31.8906 381.25 34.2969 380.844 36.7344C380.406 39.1719 380 41.6094 379.625 44.0469C379.281 46.4844 379.031 48.9531 378.875 51.4531C378.781 52.5781 378.734 53.7188 378.734 54.875C378.766 56 379.016 57.0469 379.484 58.0156C379.766 58.5469 380.109 58.9531 380.516 59.2344C380.953 59.5156 381.422 59.75 381.922 59.9375C382.453 60.0938 383 60.2031 383.562 60.2656C384.156 60.3281 384.719 60.375 385.25 60.4062C387.375 60.5 389.156 60.0156 390.594 58.9531C392.031 57.8594 393.203 56.5 394.109 54.875C395.016 53.2188 395.688 51.4375 396.125 49.5312C396.562 47.5938 396.828 45.7969 396.922 44.1406C397.203 40.9844 397.359 37.8281 397.391 34.6719C397.422 31.4844 397.266 28.3281 396.922 25.2031C396.797 23.8906 396.719 22.5938 396.688 21.3125C396.688 20.0312 396.688 18.7344 396.688 17.4219C396.688 16.6719 396.781 15.8594 396.969 14.9844C397.156 14.1094 397.469 13.3281 397.906 12.6406C398.344 11.9219 398.906 11.3594 399.594 10.9531C400.281 10.5469 401.109 10.4219 402.078 10.5781C402.953 10.6719 403.734 10.9219 404.422 11.3281C405.141 11.7344 405.766 12.25 406.297 12.875C406.859 13.4688 407.328 14.1406 407.703 14.8906C408.078 15.6406 408.391 16.3906 408.641 17.1406C409.734 21.1406 410.344 25.25 410.469 29.4688C410.594 33.6562 410.484 37.8906 410.141 42.1719Z" stroke="#453A94" stroke-width="16" mask="url(#path-1-outside-1)"/>
<path d="M472.391 65.6094C472.234 66.4219 472 67.2031 471.688 67.9531C471.375 68.7031 471.062 69.4688 470.75 70.25C470.344 70.9375 469.859 71.625 469.297 72.3125C468.734 72.9688 468.047 73.375 467.234 73.5312C466.391 73.6875 465.578 73.6562 464.797 73.4375C464.047 73.1875 463.359 72.8281 462.734 72.3594C462.109 71.8906 461.578 71.3125 461.141 70.625C460.703 69.9375 460.406 69.2188 460.25 68.4688C460.125 67.5625 460.078 66.6406 460.109 65.7031C460.172 64.7344 460.25 63.7656 460.344 62.7969C460.469 60.8281 460.594 58.8594 460.719 56.8906C460.875 54.8906 460.984 52.9062 461.047 50.9375C461.266 46.875 461.219 42.7969 460.906 38.7031C459.75 41.2969 458.656 43.9844 457.625 46.7656C456.625 49.5469 455.531 52.2812 454.344 54.9688C453.188 57.6562 451.891 60.2656 450.453 62.7969C449.016 65.2969 447.297 67.5938 445.297 69.6875C444.484 69.6875 443.75 69.5156 443.094 69.1719C442.469 68.8281 441.906 68.3906 441.406 67.8594C440.938 67.2969 440.531 66.6719 440.188 65.9844C439.875 65.2969 439.609 64.6094 439.391 63.9219C438.766 62.1094 438.266 60.2812 437.891 58.4375C437.516 56.5625 437.156 54.6875 436.812 52.8125C436.469 50.875 436.141 48.9688 435.828 47.0938C435.547 45.2188 435.188 43.3281 434.75 41.4219C434.406 43.3906 434.141 45.3594 433.953 47.3281C433.797 49.2656 433.656 51.2188 433.531 53.1875C433.406 54.2812 433.375 55.375 433.438 56.4688C433.5 57.5312 433.562 58.6094 433.625 59.7031C433.656 60.7344 433.703 61.7656 433.766 62.7969C433.828 63.8281 433.828 64.8906 433.766 65.9844C433.703 66.9531 433.609 67.9219 433.484 68.8906C433.391 69.8594 433.141 70.7969 432.734 71.7031C432.484 72.1406 432.172 72.4844 431.797 72.7344C431.422 72.9844 431.016 73.1719 430.578 73.2969C430.172 73.4219 429.734 73.5 429.266 73.5312C428.828 73.5312 428.406 73.5 428 73.4375C426.562 73.2812 425.391 72.6875 424.484 71.6562C423.578 70.5938 422.922 69.4219 422.516 68.1406C421.797 65.6094 421.375 63 421.25 60.3125C421.156 57.625 421.172 54.9375 421.297 52.25C421.484 47.9688 421.875 43.7031 422.469 39.4531C423.094 35.2031 423.953 30.9531 425.047 26.7031C425.328 24.9844 425.734 23.3281 426.266 21.7344C426.797 20.1094 427.406 18.4688 428.094 16.8125C428.438 16.0625 428.828 15.2969 429.266 14.5156C429.703 13.7344 430.203 13.0156 430.766 12.3594C431.359 11.7031 432.016 11.1406 432.734 10.6719C433.453 10.2031 434.25 9.90625 435.125 9.78125C435.969 9.65625 436.734 9.73438 437.422 10.0156C438.109 10.2656 438.703 10.6406 439.203 11.1406C439.734 11.6406 440.172 12.2344 440.516 12.9219C440.891 13.5781 441.172 14.25 441.359 14.9375C442.609 19.4688 443.734 24 444.734 28.5312C445.734 33.0625 446.5 37.6875 447.031 42.4062C448.375 39.2188 449.688 36.0625 450.969 32.9375C452.25 29.7812 453.562 26.6094 454.906 23.4219C455.562 22.2656 456.188 21 456.781 19.625C457.406 18.25 458.094 16.9375 458.844 15.6875C459.594 14.4062 460.453 13.2656 461.422 12.2656C462.422 11.2344 463.625 10.5 465.031 10.0625C466.156 10.2188 467.141 10.5781 467.984 11.1406C468.859 11.7031 469.609 12.4062 470.234 13.25C470.891 14.0938 471.438 15.0156 471.875 16.0156C472.312 17.0156 472.672 18 472.953 18.9688C473.641 21.0312 474.094 23.1562 474.312 25.3438C474.562 27.5 474.625 29.6875 474.5 31.9062C474.5 33 474.406 34.0938 474.219 35.1875C474.062 36.25 473.938 37.3281 473.844 38.4219C473.688 39.5156 473.547 40.5938 473.422 41.6562C473.297 42.7188 473.172 43.7969 473.047 44.8906C472.984 46.0781 473 47.2969 473.094 48.5469C473.188 49.7656 473.203 50.9688 473.141 52.1562C473.203 54.4062 473.203 56.6562 473.141 58.9062C473.078 61.125 472.828 63.3594 472.391 65.6094Z" stroke="#453A94" stroke-width="16" mask="url(#path-1-outside-1)"/>
</svg>
